<svg width="34" height="34" viewBox="0 0 34 34" fill="none" xmlns="http://www.w3.org/2000/svg">
    <path d="M16.9932 25.4995C21.6876 25.4995 25.4932 21.6939 25.4932 16.9995C25.4932 12.3051 21.6876 8.49951 16.9932 8.49951C12.2987 8.49951 8.49316 12.3051 8.49316 16.9995C8.49316 21.6939 12.2987 25.4995 16.9932 25.4995Z" fill="white"/>
    <path d="M12.7432 24.3573C11.4516 23.6133 10.3794 22.5411 9.63538 21.2495L2.27757 8.49951C0.785795 11.0833 0.000298914 14.0143 8.52948e-08 16.9978C-0.000298743 19.9814 0.78461 22.9124 2.27587 25.4966C3.76712 28.0807 5.9122 30.2268 8.49558 31.7194C11.079 33.2119 14.0096 33.9983 16.9932 33.9995L24.351 21.2495C23.2233 23.2003 21.3671 24.6235 19.1904 25.2063C17.0138 25.7891 14.6948 25.4837 12.7432 24.3573Z" fill="url(#paint0_linear_0_1)"/>
    <path d="M25.4937 16.9995C25.4946 18.4921 25.1005 19.9584 24.3516 21.2495L16.9937 33.9995C19.9784 34.0006 22.9108 33.216 25.496 31.7244C28.0812 30.2328 30.2282 28.0868 31.721 25.5023C33.2139 22.9178 33.9999 19.9858 34.0002 17.0011C34.0005 14.0165 33.215 11.0843 31.7227 8.49951H16.9805C19.2348 8.49951 21.3968 9.39504 22.9909 10.9891C24.5849 12.5832 25.4805 14.7452 25.4805 16.9995H25.4937Z" fill="url(#paint1_linear_0_1)"/>
    <path d="M16.9932 23.9062C20.8074 23.9062 23.8994 20.8142 23.8994 17C23.8994 13.1858 20.8074 10.0938 16.9932 10.0938C13.1789 10.0938 10.0869 13.1858 10.0869 17C10.0869 20.8142 13.1789 23.9062 16.9932 23.9062Z" fill="#1A73E8"/>
    <path d="M12.7436 9.6419C14.0347 8.89292 15.5009 8.49886 16.9936 8.49971H31.7092C30.2171 5.91546 28.0711 3.76949 25.4868 2.27748C22.9025 0.785476 19.971 0 16.9869 0C14.0028 0 11.0713 0.785476 8.48706 2.27748C5.90276 3.76949 3.75673 5.91546 2.26465 8.49971L9.63574 21.2497C8.50937 19.2981 8.204 16.9791 8.78677 14.8025C9.36953 12.6258 10.7927 10.7696 12.7436 9.6419Z" fill="url(#paint2_linear_0_1)"/>
    <defs>
        <linearGradient id="paint0_linear_0_1" x1="19.251" y1="33.6011" x2="4.50882" y2="8.10107" gradientUnits="userSpaceOnUse">
            <stop stop-color="#1E8E3E"/>
            <stop offset="1" stop-color="#34A853"/>
        </linearGradient>
        <linearGradient id="paint1_linear_0_1" x1="14.7359" y1="33.7339" x2="29.4781" y2="8.23388" gradientUnits="userSpaceOnUse">
            <stop stop-color="#FCC934"/>
            <stop offset="1" stop-color="#FBBC04"/>
        </linearGradient>
        <linearGradient id="paint2_linear_0_1" x1="2.25137" y1="10.6247" x2="31.7357" y2="10.6247" gradientUnits="userSpaceOnUse">
            <stop stop-color="#D93025"/>
            <stop offset="1" stop-color="#EA4335"/>
        </linearGradient>
    </defs>
</svg>
