<svg width="34" height="34" viewBox="0 0 34 34" fill="none" xmlns="http://www.w3.org/2000/svg">
    <path d="M30.6928 25.3113C30.2368 25.5484 29.7667 25.7569 29.285 25.9358C27.7597 26.5038 26.1445 26.7919 24.517 26.7862C18.235 26.7862 12.7631 22.4679 12.7631 16.914C12.7712 16.1703 12.9774 15.4422 13.3602 14.8046C13.743 14.1671 14.2887 13.6431 14.9412 13.2866C9.25684 13.5258 7.7959 19.4518 7.7959 22.9197C7.7959 32.752 16.8404 33.7353 18.7928 33.7353C19.842 33.7353 21.4225 33.4297 22.3787 33.1241L22.5514 33.0709C26.2109 31.8057 29.3306 29.3314 31.3967 26.0554C31.4567 25.9559 31.4825 25.8394 31.47 25.7238C31.4576 25.6082 31.4076 25.4999 31.3277 25.4155C31.2478 25.331 31.1425 25.2751 31.0278 25.2563C30.9131 25.2375 30.7954 25.2568 30.6928 25.3113Z" fill="url(#paint0_linear_0_1)"/>
    <path opacity="0.35" d="M30.6928 25.3113C30.2368 25.5484 29.7667 25.7569 29.285 25.9358C27.7597 26.5038 26.1445 26.7919 24.517 26.7862C18.235 26.7862 12.7631 22.4679 12.7631 16.914C12.7712 16.1703 12.9774 15.4422 13.3602 14.8046C13.743 14.1671 14.2887 13.6431 14.9412 13.2866C9.25684 13.5258 7.7959 19.4518 7.7959 22.9197C7.7959 32.752 16.8404 33.7353 18.7928 33.7353C19.842 33.7353 21.4225 33.4297 22.3787 33.1241L22.5514 33.0709C26.2109 31.8057 29.3306 29.3314 31.3967 26.0554C31.4567 25.9559 31.4825 25.8394 31.47 25.7238C31.4576 25.6082 31.4076 25.4999 31.3277 25.4155C31.2478 25.331 31.1425 25.2751 31.0278 25.2563C30.9131 25.2375 30.7954 25.2568 30.6928 25.3113Z" fill="url(#paint1_radial_0_1)"/>
    <path d="M14.038 32.0598C12.8558 31.3252 11.8311 30.3633 11.0232 29.2297C10.1006 27.9664 9.4656 26.5165 9.16264 24.9816C8.85968 23.4467 8.89615 21.864 9.26948 20.3447C9.64282 18.8254 10.344 17.4062 11.3238 16.1868C12.3035 14.9674 13.5382 13.9772 14.9411 13.2859C15.3661 13.0866 16.0699 12.7411 17.0129 12.7544C17.6764 12.7595 18.3297 12.9181 18.9218 13.2178C19.5139 13.5174 20.0288 13.95 20.4261 14.4817C20.9604 15.2006 21.2533 16.0704 21.2627 16.9662C21.2627 16.9397 24.5165 6.39014 10.6381 6.39014C4.80778 6.39014 0.0134006 11.9174 0.0134006 16.7802C-0.00978968 19.349 0.539159 21.8907 1.62038 24.2207C3.39108 27.9928 6.48454 30.9832 10.3135 32.6242C14.1425 34.2652 18.4405 34.4426 22.3916 33.1227C21.0074 33.5601 19.5447 33.6916 18.1047 33.508C16.6647 33.3245 15.2817 32.8304 14.0512 32.0598H14.038Z" fill="url(#paint2_linear_0_1)"/>
    <path opacity="0.41" d="M14.038 32.0598C12.8558 31.3252 11.8311 30.3633 11.0232 29.2297C10.1006 27.9664 9.4656 26.5165 9.16264 24.9816C8.85968 23.4467 8.89615 21.864 9.26948 20.3447C9.64282 18.8254 10.344 17.4062 11.3238 16.1868C12.3035 14.9674 13.5382 13.9772 14.9411 13.2859C15.3661 13.0866 16.0699 12.7411 17.0129 12.7544C17.6764 12.7595 18.3297 12.9181 18.9218 13.2178C19.5139 13.5174 20.0288 13.95 20.4261 14.4817C20.9604 15.2006 21.2533 16.0704 21.2627 16.9662C21.2627 16.9397 24.5165 6.39014 10.6381 6.39014C4.80778 6.39014 0.0134006 11.9174 0.0134006 16.7802C-0.00978968 19.349 0.539159 21.8907 1.62038 24.2207C3.39108 27.9928 6.48454 30.9832 10.3135 32.6242C14.1425 34.2652 18.4405 34.4426 22.3916 33.1227C21.0074 33.5601 19.5447 33.6916 18.1047 33.508C16.6647 33.3245 15.2817 32.8304 14.0512 32.0598H14.038Z" fill="url(#paint3_radial_0_1)"/>
    <path d="M20.24 19.7704C20.1205 19.9033 19.7885 20.1026 19.7885 20.5145C19.7885 20.8599 20.0142 21.2054 20.4259 21.4844C22.3251 22.813 25.9242 22.627 25.9375 22.627C27.3533 22.6261 28.7429 22.2453 29.9616 21.5242C31.1885 20.8063 32.2065 19.78 32.9147 18.5471C33.6229 17.3143 33.9966 15.9176 33.9989 14.4956C34.0388 11.5195 32.9365 9.53976 32.4982 8.66284C29.6694 3.1622 23.6 8.32593e-08 16.9995 8.32593e-08C12.532 -0.000441854 8.244 1.75848 5.06277 4.89633C1.88153 8.03418 0.0628232 12.2987 0 16.7677C0.0664042 11.9181 4.88735 7.99851 10.6247 7.99851C11.0895 7.99851 13.7457 8.03837 16.2026 9.32717C17.9288 10.1853 19.3582 11.5413 20.3064 13.2201C21.1165 14.6285 21.2626 16.4222 21.2626 17.1397C21.2626 17.8571 20.904 18.9068 20.2267 19.7837L20.24 19.7704Z" fill="url(#paint4_radial_0_1)"/>
    <defs>
        <linearGradient id="paint0_linear_0_1" x1="7.7959" y1="23.5176" x2="31.4896" y2="23.5176" gradientUnits="userSpaceOnUse">
            <stop stop-color="#0C59A4"/>
            <stop offset="1" stop-color="#114A8B"/>
        </linearGradient>
        <radialGradient id="paint1_radial_0_1" cx="0" cy="0" r="1" gradientUnits="userSpaceOnUse" gradientTransform="translate(20.8779 23.6963) scale(12.6703 12.042)">
            <stop offset="0.7" stop-opacity="0"/>
            <stop offset="0.9" stop-opacity="0.5"/>
            <stop offset="1"/>
        </radialGradient>
        <linearGradient id="paint2_linear_0_1" x1="20.28" y1="13.2327" x2="5.49146" y2="29.343" gradientUnits="userSpaceOnUse">
            <stop stop-color="#1B9DE2"/>
            <stop offset="0.2" stop-color="#1595DF"/>
            <stop offset="0.7" stop-color="#0680D7"/>
            <stop offset="1" stop-color="#0078D4"/>
        </linearGradient>
        <radialGradient id="paint3_radial_0_1" cx="0" cy="0" r="1" gradientUnits="userSpaceOnUse" gradientTransform="translate(9.37042 26.4312) rotate(-81.388) scale(19.0509 15.3849)">
            <stop offset="0.8" stop-opacity="0"/>
            <stop offset="0.9" stop-opacity="0.5"/>
            <stop offset="1"/>
        </radialGradient>
        <radialGradient id="paint4_radial_0_1" cx="0" cy="0" r="1" gradientUnits="userSpaceOnUse" gradientTransform="translate(3.43841 6.28667) rotate(92.2896) scale(26.9135 57.2955)">
            <stop stop-color="#35C1F1"/>
            <stop offset="0.1" stop-color="#34C1ED"/>
            <stop offset="0.2" stop-color="#2FC2DF"/>
            <stop offset="0.3" stop-color="#2BC3D2"/>
            <stop offset="0.7" stop-color="#36C752"/>
        </radialGradient>
    </defs>
</svg>
