<svg width="34" height="34" viewBox="0 0 34 34" fill="none" xmlns="http://www.w3.org/2000/svg">
    <path d="M33.9206 17.8244C33.9206 15.0841 33.2217 12.505 32.0146 10.2483C37.256 -1.68001 26.4556 0.0931199 25.8203 0.0931199C23.5967 0.544461 21.3731 1.26983 19.4671 2.18863C12.161 2.09998 5.80785 6.05727 3.74308 14.2781C7.55497 9.92591 10.2551 8.15279 11.8434 7.50801C11.5098 7.81428 11.1763 8.13667 10.8427 8.45905C8.30147 11.0381 6.23669 13.6172 4.48957 16.3575C3.13953 18.7754 1.63065 20.8709 0.836508 23.6112C-3.45187 39.4082 10.0486 32.7993 11.9545 31.6709C14.0193 32.7025 16.2429 33.2667 18.7842 33.2667C25.455 33.2667 31.1728 28.9145 33.2376 22.9503H25.1373C21.3254 29.0757 12.2722 26.3354 11.9545 19.7265H33.8729C33.9555 19.0656 34 18.4047 34 17.7922L33.9206 17.8244ZM31.0617 2.51102C32.3799 3.4137 33.4441 4.76773 31.6176 9.60353C29.8704 6.70205 27.3292 4.44534 24.1526 3.31699C25.5662 2.62386 29.0763 1.22147 31.1411 2.51102H31.0617ZM2.94893 31.687C1.8689 30.5748 1.6783 27.8184 4.06074 22.8214C5.25195 26.3676 7.7138 29.2691 10.7316 31.0422C9.19091 31.8966 5.17254 33.7825 2.94893 31.5742V31.687ZM11.8434 15.5677C11.9657 12.0214 15.0199 9.11995 18.8318 9.11995C22.6437 9.11995 25.6615 12.0214 25.8203 15.5677H12.0022H11.8434Z" fill="#1EBBEE"/>
</svg>
