<svg width="34" height="35" viewBox="0 0 34 35" fill="none" xmlns="http://www.w3.org/2000/svg">
    <path d="M17.0003 0.00338285C14.2449 0.00319392 11.5307 0.672814 9.09154 1.95457C6.65239 3.23632 4.56137 5.09179 2.99859 7.36116C1.43581 9.63054 0.448105 12.2458 0.120546 14.9817C-0.207012 17.7176 0.135395 20.4921 1.11828 23.0662C2.10116 25.6404 3.69505 27.937 5.76268 29.7584C7.8303 31.5797 10.3097 32.8711 12.9873 33.5214C15.6649 34.1717 18.4604 34.1614 21.1331 33.4913C23.8058 32.8212 26.2755 31.5114 28.3296 29.6749C26.3146 31.0274 23.9434 31.7515 21.5165 31.7553C17.4671 31.7553 13.844 29.7459 11.4016 26.5795C9.52067 24.3603 8.3062 21.0823 8.22163 17.4017V16.5965C8.3062 12.9159 9.52067 9.63452 11.4016 7.41871C13.8373 4.25231 17.4671 2.24287 21.5165 2.24287C24.0063 2.24287 26.3371 3.00402 28.3296 4.32674C25.2329 1.5507 21.2234 0.0106835 17.0646 0H16.9969L17.0003 0.00338285Z" fill="url(#paint0_linear_0_1)"/>
    <path d="M11.4057 7.42198C12.9619 5.58167 14.9815 4.4687 17.1803 4.4687C22.1295 4.4687 26.1451 10.0843 26.1451 16.999C26.1451 23.9204 22.1329 29.5293 17.1803 29.5293C14.9815 29.5293 12.9652 28.4197 11.4057 26.5794C13.8414 29.7458 17.4679 31.7552 21.5206 31.7552C23.9474 31.7502 26.3182 31.0262 28.3338 29.6747C30.1192 28.0821 31.5473 26.1294 32.5239 23.9453C33.5005 21.7611 34.0036 19.3949 34.0002 17.0024C34.003 14.6096 33.4993 12.2433 32.522 10.0592C31.5448 7.87501 30.1163 5.92248 28.3304 4.33C26.3153 2.97742 23.9442 2.25335 21.5172 2.24951C17.4679 2.24951 13.8448 4.25896 11.4023 7.42536" fill="url(#paint1_linear_0_1)"/>
    <defs>
        <linearGradient id="paint0_linear_0_1" x1="14.1586" y1="0.561562" x2="14.1586" y2="33.5111" gradientUnits="userSpaceOnUse">
            <stop offset="0.6" stop-color="#FF1B2D"/>
            <stop offset="1" stop-color="#A70014"/>
        </linearGradient>
        <linearGradient id="paint1_linear_0_1" x1="22.7182" y1="2.4897" x2="22.7182" y2="31.6504" gradientUnits="userSpaceOnUse">
            <stop stop-color="#9C0000"/>
            <stop offset="0.7" stop-color="#FF4B4B"/>
        </linearGradient>
    </defs>
</svg>
