<svg width="36" height="36" viewBox="0 0 36 36" fill="none" xmlns="http://www.w3.org/2000/svg">
    <path d="M35 18C35 20.2325 34.5603 22.4431 33.7059 24.5056C32.8516 26.5682 31.5994 28.4422 30.0208 30.0208C28.4422 31.5994 26.5682 32.8516 24.5056 33.706C22.4431 34.5603 20.2325 35 18 35C13.4913 35 9.1673 33.2089 5.97918 30.0208C2.79106 26.8327 1 22.5087 1 18C1 13.4913 2.79106 9.16731 5.97918 5.97919C9.1673 2.79107 13.4913 1 18 1C20.2325 1 22.4431 1.43972 24.5056 2.29405C26.5682 3.14838 28.4422 4.40059 30.0208 5.97919C31.5994 7.55779 32.8516 9.43185 33.7059 11.4944C34.5603 13.5569 35 15.7675 35 18Z" fill="url(#paint0_linear_0_1)" stroke="#CDCDCD" stroke-width="0.351543" stroke-linecap="round" stroke-linejoin="round"/>
    <path d="M33.6678 17.9999C33.6678 22.1553 32.0171 26.1405 29.0788 29.0788C26.1405 32.0171 22.1553 33.6678 17.9999 33.6678C13.8445 33.6678 9.85935 32.0171 6.92105 29.0788C3.98275 26.1405 2.33203 22.1553 2.33203 17.9999C2.33203 13.8445 3.98275 9.85935 6.92105 6.92105C9.85935 3.98275 13.8445 2.33203 17.9999 2.33203C22.1553 2.33203 26.1405 3.98275 29.0788 6.92105C32.0171 9.85935 33.6678 13.8445 33.6678 17.9999Z" fill="url(#paint1_radial_0_1)"/>
    <path d="M17.9996 3.14893C17.873 3.14893 17.7711 3.2508 17.7711 3.37736V6.01223C17.7711 6.13879 17.873 6.24066 17.9996 6.24066C18.1261 6.24066 18.228 6.13879 18.228 6.01223V3.37736C18.228 3.2508 18.1261 3.14893 17.9996 3.14893ZM16.5052 3.24338C16.49 3.24175 16.4744 3.24175 16.4587 3.24357C16.3328 3.2567 16.2421 3.3686 16.2552 3.49448L16.3704 4.59679C16.3835 4.72266 16.4954 4.81342 16.6213 4.80028C16.7471 4.78715 16.8379 4.67524 16.8248 4.54937L16.7097 3.44706C16.6982 3.33692 16.6111 3.25366 16.5051 3.24338H16.5052ZM19.5044 3.24446C19.3985 3.25466 19.3113 3.33792 19.2997 3.44804L19.1838 4.55027C19.1706 4.67613 19.2613 4.78813 19.3872 4.80137C19.5131 4.81461 19.625 4.72394 19.6382 4.59808L19.7541 3.49576C19.7674 3.3699 19.6766 3.25799 19.5507 3.24475C19.535 3.24313 19.5195 3.24313 19.5044 3.24447L19.5044 3.24446ZM14.97 3.46599C14.9548 3.46611 14.9394 3.46762 14.9239 3.47087C14.8001 3.49709 14.7215 3.61788 14.7477 3.74169L15.2934 6.31939C15.3196 6.4432 15.4404 6.52178 15.5642 6.49557C15.688 6.46936 15.7666 6.34865 15.7404 6.22484L15.1947 3.64705C15.1718 3.53872 15.0765 3.46502 14.97 3.46585L14.97 3.46599ZM21.0394 3.46816C20.933 3.46708 20.8377 3.54085 20.8147 3.64917L20.2671 6.22656C20.2408 6.35035 20.3193 6.47118 20.4431 6.49748C20.5669 6.5238 20.6877 6.44527 20.714 6.3215L21.2616 3.7441C21.2879 3.62031 21.2093 3.49947 21.0856 3.47318C21.0701 3.46992 21.0546 3.4683 21.0394 3.4683L21.0394 3.46816ZM13.505 3.87907C13.4754 3.87636 13.4449 3.87961 13.4148 3.8896C13.2944 3.92873 13.229 4.05702 13.2681 4.17738L13.6106 5.23149C13.6497 5.35185 13.7781 5.4173 13.8985 5.37819C14.0188 5.33906 14.0842 5.21067 14.0451 5.09031L13.7026 4.0362C13.6733 3.94593 13.5937 3.88659 13.505 3.87905V3.87907ZM22.4962 3.87962C22.4075 3.88716 22.3279 3.9465 22.2986 4.03676L21.9559 5.09077C21.9168 5.21113 21.9822 5.33953 22.1025 5.37865C22.2229 5.41778 22.3513 5.35238 22.3904 5.23205L22.7331 4.17794C22.7722 4.05759 22.7068 3.92919 22.5865 3.89007C22.5564 3.8803 22.5257 3.8771 22.4962 3.87959V3.87962ZM12.0563 4.40923C12.0266 4.40977 11.9965 4.41629 11.9676 4.42915C11.852 4.48054 11.8003 4.61499 11.8517 4.73063L12.9219 7.13836C12.9733 7.254 13.1077 7.3057 13.2233 7.2543C13.3389 7.20291 13.3908 7.06846 13.3394 6.95282L12.2691 4.54509C12.2306 4.45835 12.1453 4.40751 12.0563 4.40924V4.40923ZM23.9613 4.41732C23.8723 4.41569 23.7869 4.46621 23.7483 4.55288L22.6748 6.95913C22.6233 7.0747 22.6748 7.20925 22.7904 7.26081C22.9059 7.31236 23.0405 7.26083 23.0921 7.14526L24.1655 4.73902C24.217 4.62344 24.1655 4.48889 24.0499 4.43733C24.0211 4.42447 23.991 4.41796 23.9613 4.41731V4.41732ZM10.7115 5.12075C10.6677 5.11749 10.6225 5.12726 10.5814 5.15103C10.4718 5.21431 10.4345 5.35346 10.4978 5.46306L11.0519 6.42292C11.1152 6.53252 11.2544 6.5698 11.364 6.50652C11.4736 6.44324 11.5108 6.30409 11.4476 6.19449L10.8934 5.23464C10.8538 5.16613 10.7846 5.12587 10.7115 5.12076V5.12075ZM25.2876 5.12075C25.2145 5.12563 25.1454 5.16612 25.1058 5.23462L24.5515 6.19447C24.4883 6.30408 24.5257 6.44323 24.6353 6.50651C24.7449 6.56978 24.884 6.5325 24.9473 6.4229L25.5015 5.46305C25.5647 5.35345 25.5274 5.21429 25.4178 5.15101C25.3768 5.1273 25.3315 5.11769 25.2876 5.12073V5.12075ZM9.40571 5.93518C9.36175 5.93681 9.31773 5.95092 9.27931 5.97876C9.17688 6.05307 9.15423 6.19536 9.22857 6.2978L10.7757 8.43056C10.85 8.533 10.9924 8.55564 11.0948 8.48135C11.1973 8.40704 11.2199 8.26476 11.1456 8.16232L9.59834 6.02956C9.55189 5.96553 9.47893 5.9327 9.40571 5.93521V5.93518ZM26.6098 5.9468C26.5366 5.94408 26.4636 5.97692 26.417 6.04085L24.8669 8.17155C24.7925 8.27388 24.8149 8.41622 24.9173 8.49068C25.0196 8.56512 25.162 8.54272 25.2364 8.44042L26.7864 6.30973C26.8609 6.20739 26.8384 6.06505 26.7361 5.9906C26.6977 5.9627 26.6537 5.94838 26.6098 5.9468L26.6098 5.9468ZM8.23851 6.91405C8.1802 6.91079 8.1207 6.93027 8.07367 6.97261C7.97961 7.05728 7.97205 7.20113 8.05674 7.29519L8.79832 8.119C8.88299 8.21306 9.02684 8.22062 9.1209 8.13593C9.21496 8.05126 9.22253 7.90731 9.13784 7.81325L8.39635 6.98954C8.35402 6.94249 8.29683 6.91709 8.23851 6.91402V6.91405ZM27.7623 6.91568C27.704 6.91893 27.6468 6.94417 27.6044 6.99119L26.8629 7.8148C26.7782 7.90885 26.7857 8.0528 26.8797 8.13748C26.9738 8.22216 27.1176 8.21457 27.2023 8.12055L27.944 7.29695C28.0287 7.20289 28.0211 7.05894 27.9271 6.97426C27.88 6.93193 27.8206 6.91265 27.7623 6.9157L27.7623 6.91568ZM7.11983 7.98861C7.06152 7.99187 7.00442 8.0171 6.96209 8.06413C6.87742 8.15819 6.88499 8.30204 6.97902 8.38671L8.93728 10.1496C9.03134 10.2342 9.1752 10.2267 9.25986 10.1326C9.34454 10.0386 9.33706 9.89473 9.24298 9.81005L7.28463 8.0472C7.23758 8.00487 7.1781 7.98557 7.11978 7.98864L7.11983 7.98861ZM28.8864 7.99632C28.8281 7.99306 28.7685 8.01249 28.7214 8.05478L26.762 9.81626C26.6679 9.90086 26.6601 10.0447 26.7447 10.1388C26.8293 10.233 26.9733 10.2406 27.0674 10.156L29.027 8.39451C29.1211 8.30991 29.1287 8.16605 29.0441 8.07193C29.0018 8.02488 28.9447 7.99942 28.8864 7.99632H28.8864ZM6.18955 9.18481C6.11632 9.18209 6.0433 9.21509 5.99681 9.27906C5.92243 9.38144 5.94499 9.5237 6.04739 9.59809L6.94405 10.2496C7.04644 10.324 7.18869 10.3015 7.26308 10.1991C7.33747 10.0967 7.31496 9.95435 7.21261 9.87996L6.31595 9.22849C6.27758 9.20059 6.2335 9.18637 6.18956 9.1848L6.18955 9.18481ZM29.8158 9.19311C29.7718 9.19474 29.7278 9.20879 29.6894 9.23669L28.7923 9.88757C28.6899 9.96189 28.6672 10.1043 28.7415 10.2067C28.8159 10.3091 28.9581 10.3317 29.0606 10.2574L29.9577 9.60651C30.0602 9.5322 30.0827 9.38991 30.0084 9.28748C29.962 9.22346 29.889 9.19062 29.8158 9.19313V9.19311ZM5.3202 10.4608C5.2471 10.4656 5.17795 10.5061 5.1384 10.5746C5.07512 10.6842 5.11241 10.8234 5.222 10.8867L7.50383 12.2041C7.61343 12.2674 7.75259 12.2301 7.81587 12.1205C7.87914 12.0109 7.84186 11.8717 7.73226 11.8085L5.45043 10.491C5.40935 10.4673 5.36405 10.4577 5.3202 10.4607V10.4608ZM30.6789 10.4608C30.6351 10.4575 30.5898 10.4673 30.5487 10.491L28.2669 11.8085C28.1573 11.8718 28.12 12.0109 28.1833 12.1205C28.2465 12.2301 28.3857 12.2674 28.4953 12.2041L30.7772 10.8867C30.8868 10.8234 30.9241 10.6842 30.8608 10.5747C30.8213 10.5062 30.752 10.4659 30.6789 10.4608V10.4608ZM4.66291 11.8208C4.57389 11.8186 4.48852 11.8696 4.44986 11.9562C4.3983 12.0718 4.44983 12.2064 4.56541 12.2579L5.57771 12.7095C5.69329 12.761 5.82784 12.7095 5.87939 12.5939C5.93095 12.4783 5.87933 12.3438 5.76375 12.2922L4.75154 11.8407C4.72267 11.8278 4.69258 11.8214 4.66291 11.8208ZM31.3406 11.8302C31.311 11.8307 31.2808 11.8372 31.2519 11.8501L30.2394 12.3008C30.1238 12.3523 30.0721 12.4868 30.1236 12.6024C30.1751 12.718 30.3096 12.7697 30.4253 12.7183L31.4378 12.2674C31.5534 12.216 31.605 12.0814 31.5535 11.9658C31.5149 11.8791 31.4297 11.8284 31.3406 11.8302ZM4.0771 13.2423C3.98837 13.2497 3.90883 13.309 3.87943 13.3992C3.84024 13.5195 3.90548 13.648 4.02583 13.6872L6.53106 14.5035C6.65138 14.5427 6.77983 14.4774 6.81904 14.3571C6.85822 14.2368 6.79299 14.1083 6.67264 14.0691L4.16741 13.2528C4.13734 13.243 4.10667 13.2398 4.0771 13.2423V13.2423ZM31.9254 13.252C31.8958 13.2493 31.8653 13.2526 31.8352 13.2626L29.3293 14.0771C29.209 14.1162 29.1436 14.2446 29.1827 14.365C29.2219 14.4853 29.3503 14.5507 29.4706 14.5116L31.9763 13.697C32.0967 13.6579 32.1622 13.5295 32.123 13.4092C32.0937 13.3189 32.0141 13.2595 31.9254 13.252V13.252ZM3.71212 14.7344C3.6057 14.7333 3.51026 14.8072 3.48724 14.9155C3.46092 15.0393 3.53945 15.1601 3.66322 15.1864L4.7474 15.4168C4.87119 15.4432 4.992 15.3646 5.01832 15.2409C5.04464 15.1171 4.96611 14.9962 4.84234 14.9699L3.75826 14.7395C3.74279 14.7363 3.72733 14.7346 3.71213 14.7346L3.71212 14.7344ZM32.2875 14.7366C32.2723 14.7367 32.2569 14.7388 32.2415 14.7415L31.1573 14.9718C31.0335 14.9981 30.955 15.1188 30.9813 15.2426C31.0076 15.3664 31.1284 15.445 31.2522 15.4187L32.3363 15.1884C32.4601 15.162 32.5387 15.0412 32.5124 14.9174C32.4894 14.8091 32.3939 14.7354 32.2875 14.7363L32.2875 14.7366ZM3.43588 16.2353C3.32994 16.2455 3.24275 16.3286 3.23111 16.4387C3.21782 16.5646 3.30835 16.6766 3.4342 16.6899L6.05449 16.9669C6.18034 16.9802 6.29239 16.8896 6.30569 16.7638C6.31898 16.6379 6.22835 16.5258 6.1025 16.5126L3.48222 16.2355C3.46648 16.2339 3.45101 16.2339 3.43587 16.2353L3.43588 16.2353ZM32.5657 16.255C32.5506 16.2534 32.535 16.2534 32.5192 16.2552L29.8987 16.5287C29.7728 16.5418 29.6821 16.6537 29.6952 16.7796C29.7083 16.9055 29.8202 16.9962 29.9461 16.9831L32.5667 16.7096C32.6925 16.6965 32.7833 16.5846 32.7702 16.4587C32.7587 16.3486 32.6716 16.2653 32.5657 16.255L32.5657 16.255ZM3.39151 17.7717C3.26496 17.7717 3.16309 17.8736 3.16309 18.0001C3.16309 18.1267 3.26496 18.2286 3.39151 18.2286H4.49985C4.6264 18.2286 4.72837 18.1267 4.72837 18.0001C4.72837 17.8736 4.6264 17.7717 4.49985 17.7717H3.39151ZM31.4993 17.7717C31.3727 17.7717 31.2708 17.8736 31.2708 18.0001C31.2708 18.1267 31.3727 18.2286 31.4993 18.2286H32.6076C32.7342 18.2286 32.836 18.1267 32.836 18.0001C32.836 17.8736 32.7342 17.7717 32.6076 17.7717H31.4993ZM6.09944 19.017C6.0843 19.0154 6.06883 19.0154 6.0531 19.0172L3.43241 19.2907C3.30654 19.3038 3.21581 19.4157 3.22893 19.5416C3.24206 19.6674 3.35397 19.7582 3.47984 19.745L6.10052 19.4716C6.22639 19.4584 6.31712 19.3465 6.304 19.2207C6.2925 19.1105 6.20535 19.0273 6.09943 19.017L6.09944 19.017ZM29.8983 19.0332C29.7924 19.0433 29.7052 19.1264 29.6935 19.2365C29.6802 19.3624 29.7708 19.4744 29.8966 19.4877L32.5169 19.7648C32.6428 19.7781 32.7548 19.6874 32.7681 19.5616C32.7814 19.4357 32.6908 19.3237 32.5649 19.3104L29.9447 19.0334C29.929 19.0317 29.9134 19.0317 29.8983 19.0332L29.8983 19.0332ZM4.79314 20.5764C4.77795 20.5765 4.76248 20.578 4.74702 20.5812L3.66284 20.8115C3.53904 20.8379 3.46057 20.9587 3.48686 21.0825C3.51318 21.2063 3.63399 21.2847 3.75778 21.2584L4.84196 21.0282C4.96575 21.0019 5.04423 20.8811 5.01793 20.7573C4.99492 20.649 4.89957 20.5753 4.79316 20.5762L4.79314 20.5764ZM31.2057 20.5785C31.0993 20.5774 31.0039 20.6512 30.9809 20.7595C30.9546 20.8833 31.033 21.0041 31.1568 21.0305L32.241 21.2609C32.3647 21.2872 32.4856 21.2088 32.5119 21.085C32.5382 20.9612 32.4597 20.8403 32.3359 20.814L31.2518 20.5836C31.2363 20.5803 31.2209 20.5787 31.2057 20.5787L31.2057 20.5785ZM6.6188 21.4782C6.58922 21.4755 6.55869 21.4788 6.52859 21.4888L4.02278 22.3033C3.90242 22.3424 3.83705 22.4708 3.87618 22.5912C3.9153 22.7115 4.04369 22.7769 4.16405 22.7378L6.66978 21.9232C6.79013 21.8841 6.8556 21.7557 6.81648 21.6354C6.78712 21.5451 6.70752 21.4858 6.6188 21.4782V21.4782ZM29.3778 21.4863C29.2891 21.4938 29.2096 21.553 29.1802 21.6433C29.141 21.7636 29.2062 21.8921 29.3266 21.9313L31.8318 22.7476C31.9521 22.7868 32.0806 22.7215 32.1198 22.6012C32.159 22.4808 32.0937 22.3524 31.9734 22.3132L29.4682 21.4969C29.4381 21.4871 29.4074 21.4839 29.3778 21.4864V21.4863ZM5.6626 23.2623C5.63291 23.2628 5.60287 23.2693 5.57396 23.2821L4.56136 23.733C4.44575 23.7844 4.39415 23.9189 4.44562 24.0345C4.49712 24.1502 4.63159 24.2018 4.7472 24.1503L5.75981 23.6995C5.87542 23.6481 5.92702 23.5136 5.87555 23.398C5.83696 23.3112 5.75161 23.2605 5.6626 23.2623V23.2623ZM30.3329 23.271C30.2439 23.2688 30.1585 23.3198 30.1198 23.4065C30.0683 23.522 30.1198 23.6566 30.2354 23.7081L31.2476 24.1597C31.3632 24.2112 31.4977 24.1597 31.5493 24.0441C31.6008 23.9285 31.5493 23.794 31.4337 23.7424L30.4215 23.2909C30.3926 23.278 30.3625 23.2716 30.3329 23.271V23.271ZM7.63407 23.766C7.59022 23.7627 7.54494 23.7725 7.50383 23.7963L5.222 25.1137C5.11241 25.177 5.07512 25.3162 5.1384 25.4257C5.20168 25.5353 5.34084 25.5726 5.45043 25.5094L7.73226 24.192C7.84186 24.1287 7.87914 23.9895 7.81587 23.8799C7.7763 23.8114 7.70716 23.7711 7.63407 23.766V23.766ZM28.3651 23.766C28.2921 23.7709 28.2228 23.8114 28.1833 23.8799C28.12 23.9895 28.1573 24.1287 28.2669 24.192L30.5487 25.5093C30.6583 25.5726 30.7975 25.5353 30.8608 25.4257C30.9241 25.3161 30.8868 25.177 30.7772 25.1137L28.4953 23.7963C28.4542 23.7726 28.409 23.7629 28.3651 23.766V23.766ZM7.06492 25.6993C7.02096 25.7009 6.97694 25.7151 6.93852 25.743L6.04147 26.3939C5.93904 26.4682 5.91638 26.6105 5.99068 26.7129C6.065 26.8154 6.20728 26.838 6.30971 26.7637L7.20686 26.1128C7.3093 26.0385 7.33196 25.8962 7.25766 25.7938C7.2112 25.7297 7.13814 25.6968 7.06491 25.6993L7.06492 25.6993ZM28.9288 25.707C28.8555 25.7043 28.7825 25.7373 28.736 25.8013C28.6616 25.9037 28.6842 26.046 28.7866 26.1204L29.6833 26.7719C29.7857 26.8463 29.9279 26.8237 30.0023 26.7213C30.0767 26.6189 30.0542 26.4767 29.9518 26.4023L29.0552 25.7508C29.0168 25.7229 28.9727 25.7086 28.9288 25.707L28.9288 25.707ZM9.09662 25.7859C9.03832 25.7826 8.97885 25.8021 8.93179 25.8444L6.97225 27.6058C6.87813 27.6904 6.87049 27.8343 6.9551 27.9284C7.0397 28.0225 7.18356 28.0302 7.27768 27.9456L9.23722 26.1841C9.33133 26.0995 9.33898 25.9556 9.25437 25.8615C9.21209 25.8145 9.15494 25.789 9.09662 25.7859ZM26.8971 25.7922C26.8388 25.7954 26.7816 25.8207 26.7392 25.8677C26.6546 25.9618 26.6621 26.1056 26.7562 26.1903L28.7144 27.9531C28.8085 28.0378 28.9524 28.0302 29.0371 27.9362C29.1218 27.8422 29.1142 27.6983 29.0202 27.6136L27.0618 25.8508C27.0148 25.8084 26.9554 25.7891 26.8971 25.7922V25.7922ZM10.9556 27.4656C10.8824 27.4629 10.8093 27.4957 10.7628 27.5597L9.21277 29.6904C9.13831 29.7927 9.16072 29.9351 9.26302 30.0095C9.36536 30.084 9.5077 30.0616 9.58215 29.9592L11.1322 27.8285C11.2066 27.7262 11.1842 27.5838 11.0819 27.5094C11.0435 27.4815 10.9995 27.4671 10.9556 27.4656ZM25.0308 27.4752C24.9868 27.4768 24.9428 27.4909 24.9044 27.5188C24.802 27.5931 24.7793 27.7354 24.8536 27.8378L26.4007 29.9706C26.4751 30.073 26.6173 30.0956 26.7198 30.0214C26.8222 29.947 26.8449 29.8048 26.7706 29.7023L25.2234 27.5696C25.177 27.5055 25.104 27.4727 25.0308 27.4752L25.0308 27.4752ZM8.95466 27.8043C8.89635 27.8075 8.83916 27.8328 8.79682 27.8798L8.05524 28.7034C7.97055 28.7974 7.97805 28.9414 8.07211 29.0261C8.16616 29.1108 8.31002 29.1032 8.39469 29.0091L9.13637 28.1855C9.22106 28.0914 9.21347 27.9475 9.11944 27.8628C9.07239 27.8205 9.01301 27.8012 8.95469 27.8042L8.95466 27.8043ZM27.0431 27.8054C26.9848 27.8021 26.9254 27.8216 26.8783 27.8639C26.7843 27.9486 26.7767 28.0924 26.8614 28.1865L27.6028 29.0103C27.6875 29.1044 27.8314 29.1119 27.9254 29.0272C28.0195 28.9426 28.027 28.7986 27.9424 28.7046L27.2009 27.8808C27.1585 27.8338 27.1013 27.8084 27.043 27.8053L27.0431 27.8054ZM13.1201 28.7191C13.0311 28.7169 12.9458 28.7679 12.9072 28.8545L11.8336 31.2608C11.7821 31.3764 11.8336 31.5109 11.9492 31.5625C12.0648 31.614 12.1993 31.5625 12.2509 31.4469L13.3244 29.0407C13.376 28.9251 13.3244 28.7905 13.2088 28.739C13.18 28.7261 13.1498 28.7197 13.1201 28.7191ZM22.8645 28.7257C22.8348 28.7262 22.8047 28.7326 22.7758 28.7455C22.6602 28.7969 22.6084 28.9313 22.6598 29.047L23.73 31.4547C23.7814 31.5703 23.9159 31.6221 24.0316 31.5707C24.1472 31.5193 24.1989 31.3848 24.1475 31.2692L23.0774 28.8614C23.0388 28.7748 22.9535 28.724 22.8645 28.7257V28.7257ZM11.2337 29.463C11.1606 29.4679 11.0915 29.5084 11.0519 29.5769L10.4978 30.5368C10.4345 30.6464 10.4718 30.7855 10.5814 30.8488C10.691 30.9121 10.8301 30.8748 10.8934 30.7652L11.4476 29.8053C11.5108 29.6957 11.4736 29.5566 11.364 29.4933C11.3229 29.4696 11.2776 29.46 11.2337 29.463V29.463ZM24.7654 29.463C24.7215 29.4598 24.6763 29.4696 24.6353 29.4933C24.5257 29.5566 24.4884 29.6957 24.5516 29.8053L25.1058 30.7652C25.1691 30.8748 25.3083 30.9121 25.4178 30.8488C25.5274 30.7855 25.5647 30.6464 25.5015 30.5368L24.9473 29.5769C24.9077 29.5084 24.8385 29.4682 24.7654 29.463V29.463ZM15.51 29.4974C15.4036 29.4964 15.3082 29.5701 15.2852 29.6784L14.7377 32.2558C14.7113 32.3796 14.7899 32.5005 14.9136 32.5268C15.0374 32.5531 15.1583 32.4746 15.1846 32.3508L15.7321 29.7734C15.7584 29.6496 15.6799 29.5288 15.5561 29.5025C15.5407 29.4992 15.5252 29.4976 15.51 29.4976L15.51 29.4974ZM20.481 29.4991C20.4658 29.4992 20.4505 29.5007 20.435 29.504C20.3112 29.5302 20.2326 29.6509 20.2588 29.7747L20.8045 32.3525C20.8307 32.4763 20.9515 32.5549 21.0753 32.5286C21.1991 32.5024 21.2777 32.3816 21.2515 32.2578L20.7057 29.6802C20.6828 29.5719 20.5875 29.4982 20.481 29.499L20.481 29.4991ZM17.9996 29.759C17.873 29.759 17.7711 29.8609 17.7711 29.9875V32.6224C17.7711 32.7489 17.873 32.8508 17.9996 32.8508C18.1261 32.8508 18.228 32.7489 18.228 32.6224V29.9875C18.228 29.8609 18.1261 29.759 17.9996 29.759ZM13.8064 30.6105C13.7177 30.618 13.6381 30.6773 13.6087 30.7676L13.2661 31.8217C13.227 31.9421 13.2924 32.0705 13.4127 32.1096C13.5331 32.1487 13.6615 32.0832 13.7006 31.9629L14.0432 30.9089C14.0823 30.7885 14.0169 30.6601 13.8966 30.621C13.8665 30.6112 13.836 30.608 13.8064 30.6105V30.6105ZM22.191 30.611C22.1614 30.6083 22.1308 30.6115 22.1007 30.6215C21.9804 30.6606 21.9149 30.789 21.954 30.9094L22.2965 31.9635C22.3357 32.0838 22.4641 32.1492 22.5844 32.1101C22.7048 32.0709 22.7702 31.9426 22.7311 31.8223L22.3885 30.7682C22.3592 30.6779 22.2797 30.6186 22.191 30.611V30.611ZM16.5657 31.1981C16.4598 31.2083 16.3725 31.2915 16.3609 31.4016L16.2451 32.5039C16.2318 32.6298 16.3225 32.7417 16.4484 32.7549C16.5742 32.7681 16.6862 32.6775 16.6995 32.5516L16.8153 31.4494C16.8286 31.3235 16.7379 31.2115 16.612 31.1983C16.5963 31.1967 16.5808 31.1967 16.5657 31.1981L16.5657 31.1981ZM19.4243 31.1992C19.4091 31.1975 19.3935 31.1975 19.3778 31.1994C19.2519 31.2125 19.1612 31.3244 19.1743 31.4503L19.2895 32.5527C19.3026 32.6786 19.4145 32.7692 19.5404 32.7561C19.6662 32.7429 19.757 32.631 19.7439 32.5052L19.6288 31.4029C19.6173 31.2927 19.5302 31.2095 19.4242 31.1992L19.4243 31.1992Z" fill="#F4F2F3"/>
    <g opacity="0.409" filter="url(#filter0_f_0_1)">
        <path d="M28.7065 8.86279L16.2087 16.1241L8.30664 28.5641L19.8667 20.0017L28.7065 8.86279Z" fill="black"/>
    </g>
    <path d="M19.7913 19.8757L16.209 16.1242L28.9168 7.57568L19.7913 19.8757Z" fill="#FF5150"/>
    <path d="M19.7918 19.8755L16.2095 16.124L7.08398 28.424L19.7918 19.8755Z" fill="#F1F1F1"/>
    <defs>
        <filter id="filter0_f_0_1" x="5.7618" y="6.31796" width="25.4891" height="24.7908" filterUnits="userSpaceOnUse" color-interpolation-filters="sRGB">
            <feFlood flood-opacity="0" result="BackgroundImageFix"/>
            <feBlend mode="normal" in="SourceGraphic" in2="BackgroundImageFix" result="shape"/>
            <feGaussianBlur stdDeviation="1.27242" result="effect1_foregroundBlur_0_1"/>
        </filter>
        <linearGradient id="paint0_linear_0_1" x1="17.9994" y1="34.9997" x2="17.9994" y2="0.999911" gradientUnits="userSpaceOnUse">
            <stop stop-color="#BDBDBD"/>
            <stop offset="1" stop-color="white"/>
        </linearGradient>
        <radialGradient id="paint1_radial_0_1" cx="0" cy="0" r="1" gradientUnits="userSpaceOnUse" gradientTransform="translate(18.0706 15.7153) scale(16.9999 16.9999)">
            <stop stop-color="#06C2E7"/>
            <stop offset="0.25" stop-color="#0DB8EC"/>
            <stop offset="0.5" stop-color="#12AEF1"/>
            <stop offset="0.75" stop-color="#1F86F9"/>
            <stop offset="1" stop-color="#107DDD"/>
        </radialGradient>
    </defs>
</svg>
