<svg width="24" height="24" viewBox="0 0 24 24" fill="none" xmlns="http://www.w3.org/2000/svg">
    <path d="M0 11.52C0 6.0894 0 3.37413 1.68707 1.68707C3.37413 0 6.0894 0 11.52 0H12.48C17.9106 0 20.6259 0 22.313 1.68707C24 3.37413 24 6.0894 24 11.52V12.48C24 17.9106 24 20.6259 22.313 22.313C20.6259 24 17.9106 24 12.48 24H11.52C6.0894 24 3.37413 24 1.68707 22.313C0 20.6259 0 17.9106 0 12.48V11.52Z" fill="CurrentColor"/>
    <path d="M12.6029 16.2238C7.99043 16.2238 5.35962 13.0617 5.25 7.79999H7.56043C7.63632 11.6619 9.33959 13.2978 10.6887 13.6351V7.79999H12.8643V11.1307C14.1966 10.9874 15.5962 9.46957 16.0684 7.79999H18.244C17.8814 9.85745 16.3636 11.3753 15.2843 11.9992C16.3636 12.5052 18.0923 13.829 18.75 16.2238H16.3552C15.8408 14.6217 14.5592 13.3821 12.8643 13.2135V16.2238H12.6029Z" fill="white"/>
    </svg>
    