<svg width="180" height="37" viewBox="0 0 180 37" fill="none" xmlns="http://www.w3.org/2000/svg">
<g clip-path="url(#clip0_206_134)">
<path d="M37.2249 16.6149C37.2249 16.3028 37.1848 15.8745 37.1464 15.5641C36.7977 13.9738 35.5097 12.6541 33.6761 12.6541C30.9832 12.6541 29.5784 15.0611 29.5784 18.0491C29.5784 21.2712 31.1784 23.2897 33.6361 23.2897C35.3512 23.2897 36.7177 22.1244 37.0697 20.4578C37.1848 20.0278 37.2249 19.6012 37.2249 19.0982V16.6149ZM43.1545 0V21.892C43.1545 24.0284 43.2312 26.2794 43.3113 27.5592H38.0441L37.7704 24.7671H37.6937C36.4824 26.8986 34.1816 27.9859 31.724 27.9859C27.1992 27.9859 23.5704 24.143 23.5704 18.2434C23.532 11.8374 27.5479 8.15224 32.1144 8.15224C34.4553 8.15224 36.2872 8.9673 37.1464 10.287H37.2249V0H43.1545Z" fill="#34AF77"/>
<path d="M52.9448 18.0489C52.9448 21.3075 54.3113 23.756 56.8457 23.756C59.1481 23.756 60.6313 21.4652 60.6313 18.0489C60.6313 15.2169 59.5385 12.3451 56.8457 12.3451C53.9976 12.3451 52.9448 15.2551 52.9448 18.0489ZM66.7528 17.853C66.7528 24.8034 61.7992 27.9856 56.6905 27.9856C51.1129 27.9856 46.8217 24.337 46.8217 18.2033C46.8217 12.0729 50.876 8.15199 57.0025 8.15199C62.8537 8.15199 66.7528 12.1509 66.7528 17.853Z" fill="#34AF77"/>
<path d="M70.3819 22.3948C71.4747 23.0554 73.7388 23.834 75.4923 23.834C77.2892 23.834 78.0283 23.2131 78.0283 22.2404C78.0283 21.2709 77.4427 20.8045 75.2187 20.0674C71.2795 18.7461 69.7596 16.6146 69.7963 14.3604C69.7963 10.8296 72.8395 8.15199 77.5595 8.15199C79.7852 8.15199 81.774 8.65497 82.9452 9.23929L81.8924 13.3129C81.0349 12.8481 79.3948 12.2256 77.7547 12.2256C76.3115 12.2256 75.4923 12.8099 75.4923 13.7794C75.4923 14.6708 76.2331 15.1389 78.5756 15.9523C82.2011 17.1973 83.7261 19.0183 83.7628 21.8154C83.7628 25.3462 80.9564 27.9491 75.4923 27.9491C72.998 27.9491 70.7723 27.4046 69.3291 26.6261L70.3819 22.3948Z" fill="#34AF77"/>
<path d="M93.9836 3.14233V8.57715H98.2364V12.9247H93.9836V19.7954C93.9836 22.0862 94.5291 23.1337 96.326 23.1337C97.0652 23.1337 97.6491 23.0556 98.0829 22.9776L98.1196 27.443C97.3405 27.7551 95.934 27.9493 94.2572 27.9493C92.3468 27.9493 90.7485 27.287 89.8091 26.3159C88.718 25.192 88.1724 23.3677 88.1724 20.6885V12.9247H85.6347V8.57715H88.1724V4.46534L93.9836 3.14233Z" fill="#34AF77"/>
<path d="M111.811 18.5934C108.687 18.5552 106.271 19.2906 106.271 21.5797C106.271 23.0969 107.286 23.834 108.611 23.834C110.096 23.834 111.305 22.8612 111.696 21.661C111.771 21.349 111.811 20.9987 111.811 20.6518V18.5934ZM112.515 27.559L112.159 25.6583H112.044C110.795 27.1706 108.848 27.9856 106.582 27.9856C102.719 27.9856 100.419 25.1918 100.419 22.164C100.419 17.2338 104.867 14.8667 111.615 14.9082V14.6326C111.615 13.6267 111.068 12.1874 108.143 12.1874C106.193 12.1874 104.124 12.8481 102.878 13.6267L101.787 9.82029C103.111 9.08159 105.728 8.15199 109.196 8.15199C115.553 8.15199 117.583 11.8787 117.583 16.3424V22.9409C117.583 24.7669 117.664 26.5099 117.857 27.559H112.515Z" fill="#34AF77"/>
<path d="M126.206 8.57718L128.781 17.3901C129.25 18.982 129.6 20.4943 129.874 22.0099H129.99C130.301 20.4578 130.613 19.0186 131.043 17.3901L133.499 8.57718H139.744L132.643 27.5592H126.712L119.768 8.57718H126.206Z" fill="#34AF77"/>
<path d="M148.405 16.5734H148.483C148.91 15.7998 149.379 15.0213 149.848 14.2826L153.709 8.5772H160.848L154.021 16.2646L161.822 27.5592H154.53L149.925 19.7573L148.405 21.6214V27.5592H142.473V0H148.405V16.5734Z" fill="#34AF77"/>
<path d="M173.955 18.5934C170.832 18.5552 168.414 19.2906 168.414 21.5797C168.414 23.0969 169.427 23.834 170.755 23.834C172.238 23.834 173.45 22.8612 173.835 21.661C173.914 21.349 173.955 20.9987 173.955 20.6518V18.5934ZM174.654 27.559L174.304 25.6583H174.189C172.939 27.1706 170.989 27.9856 168.726 27.9856C164.864 27.9856 162.56 25.1918 162.56 22.164C162.56 17.2338 167.01 14.8667 173.76 14.9082V14.6326C173.76 13.6267 173.213 12.1874 170.286 12.1874C168.336 12.1874 166.269 12.8481 165.017 13.6267L163.926 9.82029C165.256 9.08159 167.867 8.15199 171.341 8.15199C177.698 8.15199 179.728 11.8787 179.728 16.3424V22.9409C179.728 24.7669 179.803 26.5099 180 27.559H174.654Z" fill="#34AF77"/>
<path d="M5.83346 14.9649C5.80509 14.7276 5.77506 14.4869 5.75003 14.2495C5.39632 10.6523 7.44016 8.22204 9.86941 7.68586C11.9833 7.22272 14.4726 7.96474 15.2017 11.2582L5.83346 14.9649ZM21.2632 12.1297C20.9812 10.8166 20.0168 6.39771 16.0993 4.15837C13.8653 2.88018 11.2442 2.6843 8.73654 3.23375C1.69406 4.77921 -1.07555 11.2632 0.372657 17.8152C2.02775 25.2752 7.90231 29.1297 14.3809 27.7087C16.8084 27.1759 19.4212 25.979 22.0423 23.9704L19.2026 20.1491C17.7911 21.1202 15.8257 22.2507 13.892 22.674C11.2842 23.245 8.65144 22.6856 7.4168 19.2809L21.4734 13.4062C21.44 13.1041 21.3766 12.6592 21.2632 12.1297Z" fill="#34AF77"/>
</g>
<defs>
<clipPath id="clip0_206_134">
<rect width="180" height="36" fill="white" transform="translate(0 0.5)"/>
</clipPath>
</defs>
</svg>
