<svg width="180" height="34" viewBox="0 0 180 34" fill="none" xmlns="http://www.w3.org/2000/svg">
<path fill-rule="evenodd" clip-rule="evenodd" d="M113.642 12.6578C113.642 8.3997 115.465 5.85002 118.828 5.85002C122.203 5.85002 124.026 8.33499 124.013 12.6578C124.013 16.9806 122.229 19.4656 118.828 19.4656C115.426 19.4656 113.642 16.9159 113.642 12.6578ZM118.892 24.9791C126.298 24.9791 131.085 19.8668 131.085 12.4895C131.085 5.1123 126.323 0 118.892 0C111.46 0 106.699 5.21584 106.699 12.4895C106.699 19.7632 111.486 24.9791 118.892 24.9791ZM91.5017 5.8759C88.1389 5.8759 86.3163 8.42558 86.3163 12.6837C86.3163 16.9418 88.1004 19.4914 91.5017 19.4914C94.903 19.4914 96.6871 17.0065 96.6871 12.6837C96.6871 8.36087 94.8645 5.8759 91.5017 5.8759ZM103.746 12.5154C103.746 19.8927 98.9589 25.005 91.553 25.005C84.1472 25.005 79.3597 19.7891 79.3597 12.5154C79.3597 5.24172 84.1215 0.0258789 91.553 0.0258789C98.9846 0.0258789 103.746 5.13818 103.746 12.5154ZM59.7347 22.8824C61.1081 24.306 62.8922 25.0179 65.4849 25.0179C70.9655 25.0179 76.4846 20.255 76.4846 11.5706C76.4846 3.83097 71.3634 0.0776367 66.7556 0.0776367C62.3662 0.0776367 60.6253 2.58284 59.745 3.84945L59.7219 3.88274V1.88959C59.7219 1.41072 59.3112 0.55651 58.387 0.55651H52.6754V32.654C52.6754 33.547 53.407 34 53.9974 34H59.7091V22.8824H59.7347ZM59.7347 9.78453C60.1455 8.58088 61.6087 5.87589 64.7533 5.87589C66.7171 5.87589 69.3996 6.6395 69.3996 11.7518C69.3996 17.3689 66.1523 19.4785 63.4569 19.4785C61.4161 19.4785 60.1968 18.6113 59.7347 18.1842V9.78453ZM12.5143 24.9532C21.0753 24.9532 24.2456 18.1584 20.9726 17.8866C20.6912 17.8619 20.4215 18.0018 20.0314 18.2043C19.1934 18.639 17.7999 19.362 14.5422 19.362C9.53651 19.362 7.48289 16.8123 7.17484 14.858H20.472C22.192 14.858 23.1289 13.3179 23.3728 12.3472C24.4253 8.11496 22.2176 0.0129384 12.5143 0.0129384C3.27296 0.0129384 0 7.41606 0 12.7484C0 18.1325 3.72219 24.9532 12.5143 24.9532ZM12.694 5.65588C17.6997 5.65588 17.6226 10.3411 16.9295 10.3411H7.14917C7.14917 8.90445 9.03594 5.65588 12.694 5.65588ZM27.6854 0.556541V16.7865C27.6854 22.9859 30.8942 24.4226 34.7704 24.4226H38.9033H39.9173C45.077 24.4226 48.9532 21.9247 48.9532 17.3171C48.9532 13.7579 46.322 12.3213 45.1412 11.9071C46.1937 11.3765 47.8494 10.0305 47.8494 7.26077C47.8494 3.01562 43.9989 0.556541 39.1985 0.556541H27.6854ZM39.6863 14.858C41.188 14.858 42.0479 15.8417 42.0479 17.2265C42.0479 18.5467 40.8671 19.4267 39.8788 19.4138H36.8882C35.4635 19.4138 34.7319 18.1843 34.7319 17.1618V14.858H39.6863ZM38.8006 5.83709C40.7002 5.81121 41.2521 7.28666 41.2393 8.02438C41.2393 9.48689 40.1868 10.3411 38.8006 10.3411H34.7319V5.83709H38.8006ZM165.65 23.193V5.83709H159.656C158.912 5.83709 158.334 5.24174 158.334 4.58167V0.582428H178.678C179.191 0.582428 180 0.970704 180 1.91551V5.82415H172.684V24.4355H166.972C166.087 24.4484 165.65 23.6719 165.65 23.193ZM134.525 0.582428V23.1542C134.525 23.6331 134.936 24.4484 135.873 24.4484H141.533V5.83709H146.359C147.797 5.83709 148.592 7.04075 148.605 8.08909V23.1413C148.605 23.9955 149.337 24.4484 149.914 24.4484H155.652V8.21852C155.652 2.01905 152.443 0.582428 148.567 0.582428H134.525Z" fill="#84BF41"/>
</svg>
