<svg width="77" height="45" viewBox="0 0 77 45" fill="none" xmlns="http://www.w3.org/2000/svg">
<path fill-rule="evenodd" clip-rule="evenodd" d="M77 4.1042C77 3.4705 77 2.8255 76.7954 2.18049C76.4885 1.24126 76.0565 0.607568 75.2949 0.290721C74.3742 -0.0827051 72.5441 -0.218497 71.5666 0.641516C70.7481 1.35442 70.3844 2.23707 70.8618 3.21024C71.1233 3.73077 71.2597 4.23999 71.3051 4.77184C71.4188 6.39002 71.3733 8.04215 71.1573 9.83007C70.9414 11.6972 69.6569 18.4302 69.2704 20.2634L69.2022 20.6029C69.0886 21.1234 69.0431 21.7005 69.0545 22.4021C69.0658 23.2961 69.6796 23.9411 70.5776 24.0203L70.61 24.0222C70.7912 24.0328 70.9629 24.0429 71.1346 24.0429C71.487 24.0429 71.8053 24.009 72.1008 23.9524C73.4535 23.6695 74.3287 22.8547 74.6243 21.5873L74.6925 21.3158C74.738 21.1687 74.772 21.0102 74.8062 20.8405C75.1472 19.1544 76.909 8.97006 77 4.1042ZM0 42.669C0.034101 40.0776 1.39814 38.0407 2.85312 36.0944C6.25184 31.5454 9.74151 27.0643 13.2425 22.5945C13.8109 21.8702 13.8905 21.3723 13.4812 20.5236C12.2249 17.959 11.0187 15.3777 9.81189 12.7953L9.81187 12.7952L9.81186 12.7952L9.81184 12.7951C9.29347 11.6859 8.775 10.5764 8.25243 9.46796C8.04783 9.03795 7.83186 8.61926 7.55905 8.22321C6.17228 6.1637 7.43401 3.21024 10.2189 2.94997C10.6395 2.90471 11.0601 2.88208 11.4807 2.88208C12.9584 2.91602 13.8677 3.78735 14.4247 5.03211C15.1281 6.59885 15.7839 8.18591 16.4394 9.77233L16.4394 9.77236L16.4396 9.77279L16.4397 9.77321L16.4399 9.77363C16.6317 10.2378 16.8235 10.7019 17.0164 11.1654C17.687 12.7722 18.3463 14.3791 19.0397 16.0765C19.1495 15.9453 19.2434 15.8353 19.3291 15.7349L19.3293 15.7346C19.4209 15.6272 19.5031 15.5309 19.5853 15.4315C20.3863 14.4682 21.1864 13.5041 21.9866 12.5398C24.0254 10.083 26.0649 7.62525 28.1219 5.17921C28.9176 4.22868 29.7588 3.28945 30.6454 2.41812C31.407 1.68259 32.3163 1.15074 33.3962 0.958365C34.4533 0.77731 35.3059 1.15074 35.9765 1.95417C36.704 2.81418 37.1019 3.83262 37.1587 4.94158C37.1814 5.37159 36.9995 5.84686 36.7722 6.2316C36.5335 6.62766 36.1811 6.98977 35.806 7.27267C34.1919 8.49479 32.8392 9.96586 31.5207 11.4709C28.4978 14.8987 25.4863 18.3379 22.4749 21.7771L22.4725 21.7797C22.2566 22.0287 22.2111 22.1984 22.393 22.4926C22.9557 23.4155 23.5126 24.3412 24.0694 25.2667L24.0696 25.2671L24.0698 25.2674C25.0763 26.9405 26.0825 28.613 27.1216 30.2667C27.539 30.9356 28.1114 31.5227 28.6755 32.1014C28.7412 32.1689 28.8069 32.2362 28.8722 32.3036C29.486 32.9259 30.2476 33.2994 31.1342 33.4125C31.5889 33.4691 32.0549 33.5596 32.4982 33.6841C33.112 33.8538 33.328 34.2159 33.2939 34.8496C33.2484 35.6983 32.8733 36.3773 32.2595 36.9318C31.5661 37.5655 30.7363 37.9163 29.827 38.0973C27.1785 38.6292 24.9505 37.8257 23.0523 35.9699C21.1312 34.1028 19.7558 31.8509 18.4259 29.5538C18.1917 29.1457 17.9649 28.7339 17.7349 28.3163L17.7346 28.3158C17.5629 28.004 17.3894 27.689 17.2096 27.3698C16.8362 27.825 16.4628 28.2741 16.0917 28.7205L16.0912 28.7211C15.457 29.4838 14.8295 30.2385 14.2201 31.0022C12.2432 33.4904 10.2729 35.992 8.30426 38.4915C7.70338 39.2544 7.10265 40.0171 6.50192 40.7792C6.27511 41.0644 6.04909 41.3496 5.82324 41.6346L5.82213 41.636L5.82063 41.6379L5.81953 41.6393C5.18635 42.4383 4.55446 43.2356 3.91024 44.0269C3.73974 44.2419 3.50103 44.4116 3.27369 44.57C2.4098 45.2037 1.50044 45.1472 0.807057 44.3324C0.569988 44.0571 0.409831 43.7106 0.250201 43.3653L0.250179 43.3653C0.180197 43.2139 0.110317 43.0628 0.0341013 42.9179C0.0284188 42.8783 0.0227362 42.8359 0.0170535 42.7935C0.011369 42.751 0.00568445 42.7086 0 42.669ZM73.408 29.8706C72.3623 30.7872 70.6004 30.9569 69.6001 30.5156C64.5304 28.2751 70.3617 24.8803 73.3626 26.4985C74.4311 27.0869 74.5788 28.8409 73.408 29.8706ZM47.7527 12.7269C47.2185 12.4893 46.707 12.3422 46.2295 12.2969C44.6041 12.1498 43.6379 12.8288 43.2173 14.4243C43.1162 14.8177 43.0225 15.2111 42.9303 15.5984L42.9303 15.5986L42.8649 15.8728L42.6944 16.5857C42.683 16.6253 42.6745 16.6676 42.666 16.71L42.666 16.7102C42.6575 16.7526 42.6489 16.795 42.6376 16.8346C42.6292 16.8709 42.6215 16.9071 42.6139 16.9425L42.6139 16.9425L42.6139 16.9426C42.5909 17.0508 42.5695 17.1512 42.5353 17.2194C41.2622 20.0257 39.8072 22.4247 38.0908 24.5408C37.7839 24.9142 37.4315 25.265 37.0677 25.5932C37.0564 25.4461 37.0564 25.3103 37.0564 25.1632C37.0905 24.0995 37.3292 23.0358 37.6134 21.8702C37.6589 21.6834 37.7043 21.4994 37.7499 21.3154C37.7953 21.1316 37.8407 20.9479 37.8862 20.7613C37.9699 20.4087 38.0563 20.0536 38.143 19.6968L38.1436 19.6946L38.1436 19.6944C38.3156 18.987 38.4892 18.2729 38.6478 17.5589C38.7842 16.9478 38.9092 16.1331 38.625 15.2844C38.0226 13.4625 36.2038 12.8967 34.7261 13.2701C33.794 13.5078 33.3394 14.0509 33.2598 15.0354C33.2484 15.1033 33.2484 15.1712 33.2484 15.2278C33.2371 15.4201 33.2143 15.6012 33.1916 15.7483L33.0211 16.597C32.7596 17.9549 32.4755 19.3468 32.1799 20.716L32.1572 20.7952C31.748 22.685 31.3274 24.654 31.3501 26.6908C31.3729 28.3543 32.0549 29.6896 33.3962 30.6627C34.1919 31.2398 35.0103 31.5341 35.8287 31.5341C36.579 31.5341 37.3292 31.2964 38.0794 30.8212C38.8296 30.3459 39.523 29.7122 40.2619 28.8295C40.7961 28.1845 41.2963 27.483 41.785 26.7022C41.7964 27.2793 41.8532 27.9922 42.0806 28.7051C42.4102 29.7009 43.1604 30.4477 44.1494 30.7646C45.1383 31.0814 46.1954 30.9004 47.0366 30.2893C47.7754 29.7461 47.9687 28.9427 47.5367 28.1393C47.298 27.6866 47.173 27.1661 47.1503 26.4419C47.0821 24.5295 47.2185 22.5718 47.5595 20.6368C47.7802 19.3919 48.03 18.1276 48.273 16.8976L48.3324 16.597L48.7075 14.6959C48.9803 13.4738 48.2188 12.9306 47.7527 12.7269ZM67.2471 11.2559C67.6791 11.7764 67.9632 12.4441 68.0428 13.123C68.111 13.587 67.9746 14.198 67.554 14.5375C67.1107 14.877 66.5765 14.7525 66.0877 14.628C66.6362 14.7699 66.5061 14.7428 66.2738 14.6945C66.1354 14.6657 65.9608 14.6294 65.8717 14.6167C65.6444 14.5828 65.417 14.5601 65.1897 14.5488C64.7578 14.5149 64.3258 14.5262 63.8939 14.5375C63.371 14.5715 62.8481 14.628 62.3366 14.6959C62.2343 19.7994 61.3818 25.3895 61.0407 27.1548C61.0066 27.3245 60.9725 27.4943 60.9271 27.6527C60.9157 27.6979 60.9044 27.746 60.893 27.794C60.8816 27.8422 60.8702 27.8903 60.8589 27.9356C60.5633 29.2596 59.6881 30.1196 58.3354 30.4251C58.0399 30.493 57.7216 30.5269 57.3692 30.5269C57.1975 30.5269 57.0257 30.5169 56.8444 30.5062L56.8122 30.5043C55.9142 30.4251 55.3004 29.7461 55.289 28.7956C55.2777 28.0487 55.3231 27.449 55.4368 26.8945L55.505 26.5324C55.528 26.4137 55.5511 26.2947 55.5743 26.1756C55.9283 24.353 56.2912 22.4843 56.4939 20.6255C56.6872 18.962 56.744 17.4118 56.6758 15.8954C55.5619 16.2009 54.4593 16.5404 53.3794 16.9252C52.8565 17.1062 52.22 16.7894 51.7766 16.5291C51.1515 16.167 50.6854 15.5559 50.333 14.9336C49.8215 14.017 49.6396 12.5346 50.8446 12.1046C51.1054 12.0108 51.3708 11.9262 51.635 11.8421C51.7853 11.7942 51.9352 11.7464 52.0836 11.6972C54.0955 11.0635 56.1302 10.509 58.199 10.1243C60.6543 9.66033 63.2005 9.37743 65.6444 9.99981C66.2809 10.1582 66.8379 10.758 67.2471 11.2559Z" fill="#EB3125"/>
</svg>
