<svg width="125" height="125" viewBox="0 0 125 125" fill="none" xmlns="http://www.w3.org/2000/svg">
<path d="M114.062 85.3376C111.207 93.3014 106.596 100.531 100.567 106.498C78.132 128.78 41.7497 128.78 19.3123 106.498C-3.12523 84.2162 -3.13071 48.0816 19.3123 25.7969C26.013 19.1253 34.2799 14.2146 43.368 11.5075C51.28 9.14964 59.609 8.50368 67.7937 9.61311C66.0059 9.92139 64.3087 10.618 62.8233 11.6531C61.3379 12.6883 60.101 14.0364 59.2009 15.6013C58.3009 17.1661 57.7598 18.9091 57.6165 20.7056C57.4731 22.5022 57.731 24.308 58.3716 25.9942C59.0123 27.6803 60.02 29.2051 61.3227 30.4597C62.6253 31.7143 64.1909 32.6677 65.9075 33.2518C67.6241 33.8359 69.4494 34.0363 71.253 33.8387C73.0566 33.6412 74.794 33.0504 76.3411 32.1088C74.4635 34.483 73.5357 37.4627 73.736 40.4752C73.9364 43.4877 75.2507 46.3203 77.4265 48.4286C79.6023 50.5369 82.4859 51.7721 85.5231 51.8967C88.5603 52.0213 91.5366 51.0265 93.8801 49.1036C92.9451 50.6605 92.3701 52.4041 92.1964 54.2086C92.0227 56.0131 92.2547 57.8334 92.8757 59.5379C93.4967 61.2425 94.4911 62.7888 95.7871 64.0651C97.0832 65.3414 98.6485 66.3159 100.37 66.9181C102.091 67.5204 103.926 67.7353 105.741 67.5475C107.557 67.3596 109.307 66.7737 110.867 65.8319C112.426 64.8901 113.756 63.6161 114.759 62.1018C115.762 60.5876 116.414 58.8709 116.668 57.0758C118.201 66.5643 117.305 76.2834 114.062 85.3376Z" fill="#DDA767"/>
<path d="M31.6347 94.9441C10.8155 74.2748 9.3233 41.6908 27.1294 19.2877C24.3382 21.222 21.7246 23.3974 19.3191 25.7887C-3.12248 48.0789 -3.12248 84.2135 19.3191 106.49C41.7607 128.767 78.1361 128.772 100.574 106.49C102.202 104.874 103.733 103.162 105.156 101.365C82.7401 116.95 51.6442 114.823 31.6347 94.9441Z" fill="#BC864B"/>
<path d="M114.062 85.3376C94.4679 91.1813 72.3497 86.4263 56.8647 71.0481C40.6522 54.9433 36.151 31.612 43.3707 11.4966C51.2827 9.14277 59.6107 8.50052 67.7937 9.61309C66.0059 9.92137 64.3087 10.618 62.8233 11.6531C61.3379 12.6882 60.101 14.0364 59.2009 15.6012C58.3009 17.1661 57.7598 18.9091 57.6165 20.7056C57.4731 22.5022 57.731 24.308 58.3716 25.9942C59.0123 27.6803 60.02 29.2051 61.3227 30.4597C62.6253 31.7143 64.1909 32.6677 65.9075 33.2518C67.6241 33.8359 69.4493 34.0363 71.253 33.8387C73.0566 33.6411 74.794 33.0504 76.3411 32.1087C74.4635 34.483 73.5356 37.4627 73.736 40.4752C73.9363 43.4877 75.2507 46.3203 77.4265 48.4286C79.6023 50.5369 82.4859 51.7721 85.5231 51.8967C88.5603 52.0213 91.5366 51.0265 93.88 49.1036C92.9451 50.6605 92.3701 52.4041 92.1964 54.2086C92.0227 56.0131 92.2547 57.8334 92.8757 59.5379C93.4967 61.2425 94.4911 62.7888 95.7871 64.0651C97.0832 65.3414 98.6485 66.3159 100.37 66.9181C102.091 67.5204 103.926 67.7353 105.741 67.5475C107.557 67.3596 109.307 66.7736 110.867 65.8319C112.426 64.8901 113.756 63.6161 114.759 62.1018C115.762 60.5876 116.414 58.8709 116.668 57.0758C118.201 66.5643 117.305 76.2834 114.062 85.3376Z" fill="#EFBE89"/>
<path d="M118.187 56.8308C118.13 56.4741 117.947 56.1493 117.671 55.9145C117.394 55.6798 117.043 55.5506 116.679 55.5502H116.664C116.296 55.5529 115.942 55.6869 115.665 55.9277C115.388 56.1686 115.208 56.5002 115.157 56.8621C114.934 58.4328 114.363 59.9347 113.484 61.2594C112.606 62.5841 111.442 63.6985 110.077 64.5222C108.712 65.3459 107.18 65.8583 105.592 66.0223C104.003 66.1864 102.398 65.9981 100.892 65.471C99.3853 64.9439 98.0156 64.0911 96.8815 62.9743C95.7474 61.8574 94.8772 60.5044 94.3336 59.0129C93.79 57.5214 93.5868 55.9286 93.7384 54.3495C93.8901 52.7705 94.3929 51.2446 95.2106 49.882C95.3951 49.5725 95.4636 49.2082 95.4041 48.8534C95.3446 48.4986 95.161 48.176 94.8854 47.9426C94.6099 47.7091 94.2602 47.5798 93.8981 47.5773C93.5359 47.5749 93.1845 47.6995 92.9058 47.9292C88.6746 51.4226 82.3071 51.1259 78.3978 47.2582C76.5321 45.4032 75.4157 42.9333 75.2599 40.3158C75.1041 37.6984 75.9197 35.115 77.5524 33.0545C77.7773 32.7734 77.895 32.4224 77.8848 32.0635C77.8746 31.7046 77.7372 31.3608 77.4967 31.0927C77.2562 30.8246 76.9282 30.6494 76.5704 30.598C76.2126 30.5466 75.848 30.6223 75.5409 30.8118C74.1868 31.6368 72.6659 32.1546 71.0869 32.3282C69.508 32.5017 67.9099 32.3268 66.4069 31.8159C64.9039 31.305 63.533 30.4707 62.3922 29.3726C61.2515 28.2745 60.369 26.9397 59.8078 25.4637C59.2467 23.9876 59.0206 22.4066 59.1459 20.8338C59.2712 19.2609 59.7448 17.7349 60.5327 16.3648C61.3206 14.9948 62.4034 13.8144 63.7039 12.9082C65.0043 12.0019 66.4902 11.3921 68.0554 11.1223C68.417 11.061 68.7446 10.873 68.9787 10.5924C69.2128 10.3119 69.338 9.95732 69.3315 9.593C69.325 9.22867 69.1874 8.8787 68.9435 8.60651C68.6996 8.33432 68.3655 8.15792 68.0019 8.10928C54.7231 6.30064 41.6114 8.91765 30.3988 15.4173C30.0987 15.5929 29.8068 15.7602 29.515 15.9358C29.1697 16.1413 28.8299 16.355 28.4859 16.5686C27.9556 16.8966 27.4418 17.2327 26.9266 17.5839C26.2744 18.018 25.629 18.4684 24.9987 18.9339C24.5767 19.2387 24.1546 19.5585 23.7395 19.8797C23.1558 20.3369 22.572 20.8024 22.0034 21.276C21.9568 21.3141 21.9116 21.359 21.8664 21.3971C21.6132 21.6727 21.469 22.03 21.4604 22.403C21.4519 22.776 21.5795 23.1394 21.8198 23.4262C21.9641 23.5964 22.144 23.7333 22.3471 23.8273C22.5501 23.9213 22.7714 23.9702 22.9954 23.9705C23.3583 23.9736 23.71 23.8465 23.9861 23.6126L24.1231 23.4983C24.5767 23.1159 25.0302 22.7498 25.4934 22.3919C26.0004 21.9836 26.5238 21.5985 27.0527 21.2243C28.0986 20.4694 29.1715 19.7472 30.2713 19.0577C32.4683 17.6925 34.7575 16.4793 37.1225 15.4268C37.1885 15.4005 37.2504 15.3647 37.3061 15.3207C37.3104 15.3213 37.3147 15.3209 37.3188 15.3195C37.3228 15.3181 37.3265 15.3157 37.3294 15.3125C44.4066 12.2015 52.0617 10.5983 59.8011 10.6065C60.4081 10.6065 61.0152 10.6133 61.629 10.6365C61.0865 11.0371 60.5758 11.4784 60.1012 11.9565C57.9797 14.0663 56.605 16.803 56.1839 19.7552C55.7627 22.7075 56.3178 25.7158 57.7657 28.3278C59.2136 30.9399 61.4761 33.0145 64.2131 34.2399C66.95 35.4653 70.0135 35.7753 72.943 35.1231C72.0696 37.5941 71.9234 40.2612 72.5217 42.8118C73.1199 45.3624 74.4377 47.6908 76.3207 49.5241C78.2037 51.3574 80.5738 52.6197 83.1532 53.1629C85.7327 53.7062 88.4146 53.508 90.8847 52.5916C90.2803 55.4931 90.6345 58.5109 91.8947 61.1965C93.1549 63.8821 95.2539 66.0922 97.8798 67.4985C100.506 68.9047 103.518 69.432 106.47 69.0021C109.422 68.5721 112.155 67.2078 114.264 65.1119C114.818 64.5607 115.327 63.9659 115.785 63.3332C115.831 64.2491 115.854 65.1568 115.854 66.0727C115.854 80.7037 110.024 94.9604 99.4788 105.434C77.6744 127.083 42.2033 127.083 20.3934 105.434C9.83167 94.9455 4.00956 80.9935 4.00956 66.1557C3.99888 60.3474 4.90888 54.5736 6.70616 49.0465C6.73139 48.9976 6.75202 48.9466 6.76781 48.894C7.6404 46.249 8.71081 43.6725 9.97005 41.1859C10.0591 41.0104 10.1454 40.8348 10.2359 40.6606C10.6469 39.8726 11.069 39.0928 11.517 38.3253C11.8322 37.7687 12.1692 37.2121 12.5228 36.6704C12.8763 36.1288 13.2216 35.5817 13.5902 35.0523C13.621 35.0125 13.6468 34.9691 13.6669 34.9231C13.7892 34.7011 13.8528 34.452 13.8519 34.1991C13.8527 33.949 13.7915 33.7026 13.6736 33.4817C13.5558 33.2607 13.385 33.0719 13.1764 32.9321C12.837 32.7148 12.4263 32.636 12.0299 32.7121C11.6335 32.7882 11.2819 33.0132 11.0484 33.3403C10.8566 33.622 10.6648 33.9037 10.4798 34.1868C10.103 34.7584 9.73437 35.3313 9.38359 35.9179C9.19039 36.239 8.9917 36.5738 8.79987 36.9018C8.30796 37.7496 7.84071 38.6029 7.39401 39.4725C7.24055 39.7706 7.0871 40.0754 6.93364 40.3803C6.78017 40.6851 6.63355 40.9913 6.48694 41.3043C6.19508 41.914 5.91965 42.54 5.64972 43.1578C5.28798 44.0043 4.95091 44.8617 4.63027 45.7245C4.52203 46.0076 4.41651 46.2947 4.31374 46.5819C4.21098 46.869 4.11781 47.1671 4.01916 47.4596C3.96572 47.6175 3.90543 47.774 3.85337 47.9332C3.85337 47.94 3.84514 47.9482 3.84514 47.955C1.91759 53.8269 0.937646 59.9646 0.941632 66.1407C0.941632 81.791 7.0871 96.5091 18.2312 107.571C29.7287 119.002 44.8369 124.703 59.9354 124.703C75.0339 124.703 90.1517 118.997 101.649 107.571C114.999 94.3317 121.182 75.3567 118.187 56.8308Z" fill="#5B310F"/>
<path d="M16.9952 29.7585C17.2076 29.7577 17.4175 29.7133 17.6119 29.628C17.8062 29.5428 17.9806 29.4185 18.1243 29.2631L18.1325 29.2549C18.1407 29.2549 18.1407 29.2549 18.1407 29.2481C18.2941 29.0726 18.4627 28.897 18.6162 28.7296L18.6395 28.7065C18.6598 28.6854 18.6777 28.6621 18.6929 28.6371C18.9385 28.3341 19.0592 27.9499 19.0307 27.5619C19.0022 27.1739 18.8267 26.8112 18.5394 26.5468C18.2351 26.2828 17.8398 26.1458 17.4362 26.1643C17.0325 26.1828 16.6517 26.3554 16.3731 26.6461C16.258 26.7686 16.1511 26.8911 16.036 27.0122C15.9744 27.0816 15.899 27.1483 15.8442 27.219C15.8265 27.2327 15.8132 27.2511 15.8058 27.2721C15.5531 27.576 15.4293 27.9657 15.4608 28.3587C15.4923 28.7516 15.6765 29.117 15.9744 29.3774C16.2569 29.6231 16.6197 29.7585 16.9952 29.7585Z" fill="#5B310F"/>
<path d="M31.6046 48.5239C31.1356 49.8019 30.3314 50.9323 29.2752 51.7982C30.7472 51.8865 32.217 51.5934 33.5407 50.9477C34.8643 50.3021 35.9963 49.3259 36.8258 48.115C37.6553 46.904 38.1538 45.4998 38.2725 44.0399C38.3912 42.5801 38.1259 41.1146 37.5027 39.7872C36.8795 38.4597 35.9198 37.3159 34.7176 36.4677C33.5154 35.6195 32.112 35.0961 30.6448 34.9487C29.1776 34.8013 27.697 35.035 26.3482 35.6269C24.9993 36.2189 23.8284 37.1487 22.9502 38.3253C24.2906 38.0825 25.6719 38.1957 26.9541 38.6535C28.2363 39.1112 29.3739 39.8973 30.2519 40.9322C31.1298 41.967 31.717 43.2139 31.9538 44.5465C32.1906 45.8792 32.0687 47.2503 31.6005 48.5212L31.6046 48.5239Z" fill="#BC864B"/>
<path d="M34.4539 44.96C34.551 40.7122 31.1626 37.1906 26.8857 37.0942C22.6089 36.9978 19.0632 40.3632 18.9661 44.6109C18.8691 48.8586 22.2574 52.3802 26.5343 52.4766C30.8111 52.573 34.3569 49.2077 34.4539 44.96Z" fill="#844C23"/>
<path d="M31.6676 50.6918C30.1348 50.6053 28.6541 50.1079 27.3832 49.2525C26.1122 48.397 25.0985 47.2154 24.4497 45.8334C23.8009 44.4514 23.5413 42.9205 23.6985 41.4037C23.8558 39.8868 24.4239 38.4406 25.3426 37.2189C24.1764 37.4273 23.0739 37.8989 22.1201 38.5973C21.1663 39.2957 20.3867 40.2022 19.8413 41.2471C19.2959 42.292 18.9994 43.4472 18.9746 44.6239C18.9497 45.8006 19.1972 46.9672 19.698 48.0338C20.1987 49.1005 20.9394 50.0387 21.8628 50.7762C22.7863 51.5137 23.8679 52.0308 25.0243 52.2876C26.1808 52.5444 27.3811 52.5341 28.5329 52.2574C29.6847 51.9807 30.7572 51.4451 31.6676 50.6918Z" fill="#6D401F"/>
<path d="M30.396 44.5868C30.0211 44.4511 29.695 44.2079 29.4592 43.8882C29.2233 43.5685 29.0882 43.1864 29.0708 42.7904C29.0535 42.3944 29.1548 42.0022 29.3619 41.6634C29.5689 41.3245 29.8725 41.0543 30.2342 40.8867C30.5959 40.7192 30.9994 40.6619 31.3939 40.7221C31.7884 40.7823 32.156 40.9573 32.4503 41.225C32.7447 41.4927 32.9525 41.8411 33.0475 42.226C33.1426 42.611 33.1206 43.0153 32.9844 43.3879C32.8938 43.6355 32.755 43.8629 32.5759 44.0572C32.3967 44.2515 32.1808 44.4088 31.9404 44.5202C31.7 44.6315 31.4399 44.6947 31.1749 44.7062C30.9099 44.7176 30.6452 44.677 30.396 44.5868Z" fill="#99643F"/>
<path d="M17.9914 41.6337C18.619 39.92 19.7443 38.4296 21.2249 37.3512C22.7054 36.2728 24.4747 35.6547 26.3091 35.5751C28.1434 35.4955 29.9602 35.958 31.5298 36.9041C33.0994 37.8502 34.3513 39.2374 35.127 40.8902C35.9027 42.5431 36.1674 44.3872 35.8877 46.1895C35.608 47.9918 34.7964 49.6712 33.5555 51.0152C32.3147 52.3593 30.7003 53.3077 28.9167 53.7404C27.1331 54.1732 25.2603 54.0708 23.5353 53.4463C21.2253 52.6069 19.3446 50.8922 18.3054 48.6779C17.2662 46.4636 17.1533 43.9305 17.9914 41.6337ZM32.5487 46.8963C32.9677 45.7497 33.0351 44.5055 32.7422 43.321C32.4494 42.1364 31.8094 41.0647 30.9034 40.2414C29.9973 39.418 28.8658 38.8799 27.6518 38.6953C26.4379 38.5106 25.1961 38.6875 24.0834 39.2037C22.9707 39.7199 22.0371 40.5522 21.4006 41.5954C20.7642 42.6385 20.4534 43.8457 20.5077 45.0643C20.562 46.2828 20.9788 47.458 21.7055 48.4413C22.4322 49.4246 23.4361 50.1717 24.5904 50.5884C26.1388 51.1453 27.8464 51.0694 29.3384 50.3772C30.8305 49.685 31.985 48.4331 32.5487 46.8963Z" fill="#5B310F"/>
<path d="M94.7612 101.774C94.2925 103.053 93.4883 104.183 92.4318 105.049C93.9038 105.137 95.3737 104.844 96.6975 104.199C98.0213 103.553 99.1534 102.577 99.9831 101.367C100.813 100.156 101.311 98.7514 101.43 97.2915C101.549 95.8316 101.284 94.366 100.661 93.0385C100.038 91.711 99.0782 90.567 97.876 89.7187C96.6738 88.8704 95.2703 88.3469 93.803 88.1994C92.3358 88.052 90.8552 88.2856 89.5063 88.8775C88.1573 89.4695 86.9864 90.3993 86.1082 91.5759C87.4485 91.3334 88.8295 91.4468 90.1115 91.9047C91.3935 92.3626 92.5309 93.1487 93.4087 94.1835C94.2865 95.2183 94.8735 96.4651 95.1103 97.7976C95.347 99.1301 95.2252 100.501 94.7571 101.772L94.7612 101.774Z" fill="#BC864B"/>
<path d="M87.2208 105.267C85.7813 104.746 84.5295 103.813 83.6237 102.586C82.718 101.359 82.199 99.8925 82.1323 98.3724C82.0657 96.8523 82.4544 95.3467 83.2493 94.046C84.0441 92.7453 85.2095 91.7079 86.598 91.065C87.9865 90.4221 89.5358 90.2025 91.0499 90.4341C92.5641 90.6657 93.975 91.3381 95.1044 92.3661C96.2338 93.3942 97.031 94.7317 97.395 96.2097C97.759 97.6877 97.6735 99.2397 97.1495 100.669C96.4464 102.586 95.0054 104.148 93.1435 105.01C91.2816 105.872 89.1512 105.964 87.2208 105.267Z" fill="#844C23"/>
<path d="M94.8241 103.944C93.2913 103.857 91.8106 103.36 90.5397 102.504C89.2687 101.649 88.255 100.467 87.6062 99.0853C86.9574 97.7033 86.6978 96.1725 86.855 94.6556C87.0123 93.1388 87.5805 91.6926 88.4992 90.4709C87.3321 90.6786 86.2287 91.1498 85.274 91.8481C84.3194 92.5464 83.5389 93.4531 82.9929 94.4984C82.4469 95.5436 82.15 96.6995 82.1249 97.8768C82.0998 99.0541 82.3474 100.221 82.8484 101.289C83.3494 102.356 84.0906 103.295 85.0147 104.032C85.9388 104.77 87.0211 105.287 88.1783 105.544C89.3354 105.8 90.5364 105.789 91.6887 105.512C92.841 105.235 93.9137 104.698 94.8241 103.944Z" fill="#6D401F"/>
<path d="M93.5539 97.8374C93.179 97.7017 92.853 97.4586 92.6171 97.1388C92.3812 96.8191 92.2461 96.4371 92.2288 96.0411C92.2115 95.6451 92.3127 95.2528 92.5198 94.914C92.7269 94.5751 93.0304 94.3049 93.3921 94.1373C93.7538 93.9698 94.1574 93.9125 94.5519 93.9727C94.9463 94.0329 95.3139 94.208 95.6083 94.4756C95.9026 94.7433 96.1105 95.0917 96.2055 95.4766C96.3006 95.8616 96.2785 96.2659 96.1423 96.6385C96.0517 96.8861 95.9129 97.1135 95.7338 97.3078C95.5547 97.5021 95.3387 97.6595 95.0983 97.7708C94.8579 97.8822 94.5978 97.9454 94.3328 97.9568C94.0678 97.9682 93.8031 97.9277 93.5539 97.8374Z" fill="#99643F"/>
<path d="M81.1479 94.8843C81.7752 93.1709 82.8999 91.6807 84.3798 90.6021C85.8597 89.5236 87.6285 88.905 89.4623 88.8247C91.2962 88.7445 93.1128 89.206 94.6826 90.1511C96.2523 91.0961 97.5047 92.4822 98.2813 94.1342C99.0579 95.7861 99.324 97.6296 99.0458 99.4317C98.7676 101.234 97.9576 102.913 96.7183 104.258C95.479 105.603 93.8661 106.553 92.0833 106.988C90.3006 107.422 88.4282 107.322 86.7028 106.7C84.3904 105.862 82.5068 104.148 81.4654 101.933C80.424 99.7177 80.3099 97.1828 81.1479 94.8843ZM95.7052 100.147C96.1255 99.0006 96.1941 97.7563 95.9024 96.5713C95.6106 95.3863 94.9716 94.3138 94.0661 93.4896C93.1606 92.6653 92.0294 92.1263 90.8154 91.9406C89.6014 91.7549 88.3593 91.931 87.2461 92.4465C86.1329 92.962 85.1986 93.7938 84.5614 94.8367C83.9242 95.8796 83.6127 97.0868 83.6663 98.3055C83.7199 99.5243 84.1362 100.7 84.8626 101.684C85.5889 102.667 86.5927 103.415 87.7469 103.832C89.2944 104.389 91.0013 104.314 92.4932 103.624C93.9851 102.933 95.1402 101.682 95.7052 100.147Z" fill="#5B310F"/>
<path d="M55.9056 49.8929C55.5267 50.9265 54.8773 51.8411 54.0243 52.5426C55.2151 52.6142 56.4042 52.3773 57.4751 51.8551C58.546 51.3328 59.4619 50.5432 60.1331 49.5636C60.8042 48.5839 61.2075 47.4479 61.3035 46.2668C61.3995 45.0858 61.1849 43.9002 60.6807 42.8263C60.1764 41.7525 59.3999 40.8271 58.4272 40.1411C57.4546 39.455 56.3191 39.0317 55.1321 38.9127C53.9451 38.7937 52.7473 38.983 51.6562 39.4621C50.565 39.9413 49.618 40.6938 48.9078 41.6459C49.992 41.4496 51.1092 41.5413 52.1463 41.9116C53.1834 42.2819 54.1035 42.9177 54.8137 43.7547C55.5239 44.5917 55.9989 45.6002 56.1907 46.678C56.3824 47.7559 56.284 48.8649 55.9056 49.8929Z" fill="#BC864B"/>
<path d="M49.8067 52.7182C48.6421 52.2972 47.6293 51.5427 46.8965 50.5501C46.1636 49.5575 45.7436 48.3713 45.6895 47.1416C45.6354 45.9119 45.9497 44.6938 46.5926 43.6415C47.2356 42.5892 48.1782 41.7499 49.3014 41.2297C50.4247 40.7095 51.678 40.5318 52.9029 40.7191C54.1278 40.9063 55.2693 41.4501 56.183 42.2818C57.0967 43.1134 57.7416 44.1954 58.0361 45.391C58.3306 46.5867 58.2616 47.8422 57.8376 48.9988C57.5563 49.7669 57.1254 50.4723 56.5695 51.0749C56.0137 51.6775 55.3437 52.1654 54.5979 52.5108C53.8522 52.8562 53.0452 53.0523 52.2231 53.0879C51.401 53.1234 50.5799 52.9978 49.8067 52.7182Z" fill="#844C23"/>
<path d="M55.9563 51.6471C55.293 51.6095 54.6388 51.4757 54.0146 51.2498C53.0065 50.8867 52.0978 50.2945 51.361 49.5206C50.6243 48.7466 50.08 47.8123 49.7715 46.7922C49.4631 45.7722 49.399 44.6946 49.5845 43.6456C49.77 42.5965 50.1999 41.6051 50.8398 40.7504C49.8958 40.9184 49.0031 41.2995 48.2308 41.8643C47.4585 42.4291 46.8272 43.1626 46.3855 44.0081C45.9438 44.8536 45.7036 45.7886 45.6833 46.741C45.6631 47.6933 45.8633 48.6376 46.2687 49.5009C46.6741 50.3642 47.2737 51.1234 48.0213 51.7201C48.7689 52.3169 49.6445 52.735 50.5805 52.9424C51.5166 53.1498 52.4882 53.1409 53.4202 52.9163C54.3523 52.6917 55.2199 52.2575 55.9563 51.6471Z" fill="#6D401F"/>
<path d="M54.9272 46.7085C54.6237 46.5987 54.3598 46.4019 54.1688 46.1431C53.9779 45.8843 53.8685 45.5751 53.8545 45.2546C53.8405 44.934 53.9225 44.6166 54.0902 44.3423C54.2578 44.0681 54.5036 43.8494 54.7964 43.7139C55.0892 43.5784 55.4159 43.5321 55.7352 43.581C56.0545 43.6299 56.352 43.7717 56.5901 43.9886C56.8282 44.2054 56.9962 44.4875 57.0729 44.7991C57.1496 45.1108 57.1315 45.438 57.0209 45.7395C56.9475 45.9397 56.8351 46.1235 56.6902 46.2805C56.5452 46.4376 56.3705 46.5647 56.1761 46.6547C55.9817 46.7446 55.7713 46.7957 55.5571 46.8049C55.3428 46.8142 55.1288 46.7814 54.9272 46.7085Z" fill="#99643F"/>
<path d="M44.8931 44.3201C45.4009 42.9339 46.3111 41.7285 47.5087 40.8561C48.7064 39.9838 50.1376 39.4838 51.6213 39.4194C53.1051 39.3549 54.5748 39.7289 55.8445 40.4941C57.1142 41.2593 58.127 42.3812 58.7546 43.7181C59.3823 45.0549 59.5968 46.5466 59.3708 48.0045C59.1449 49.4624 58.4887 50.821 57.4853 51.9085C56.4819 52.996 55.1763 53.7636 53.7336 54.1141C52.291 54.4646 50.7761 54.3823 49.3806 53.8777C47.5107 53.1996 45.9879 51.8125 45.1466 50.0206C44.3053 48.2288 44.2142 46.1787 44.8931 44.3201ZM56.6688 48.577C57.0085 47.6498 57.0637 46.6434 56.8276 45.6851C56.5914 44.7267 56.0744 43.8594 55.342 43.1928C54.6096 42.5262 53.6946 42.0903 52.7128 41.9402C51.7309 41.79 50.7263 41.9324 49.8259 42.3492C48.9255 42.7661 48.1698 43.4388 47.6543 44.2822C47.1388 45.1256 46.8867 46.1019 46.9298 47.0876C46.9729 48.0734 47.3093 49.0242 47.8965 49.8201C48.4837 50.6159 49.2953 51.221 50.2287 51.5587C51.4809 52.0107 52.8625 51.9505 54.07 51.3914C55.2775 50.8323 56.2122 49.8201 56.6688 48.577Z" fill="#5B310F"/>
<path d="M63.45 113.311C63.0712 114.344 62.4218 115.258 61.5687 115.959C62.7596 116.031 63.9487 115.794 65.0196 115.272C66.0905 114.749 67.0064 113.96 67.6775 112.98C68.3487 112 68.752 110.864 68.848 109.683C68.944 108.502 68.7294 107.317 68.2251 106.243C67.7209 105.169 66.9444 104.244 65.9717 103.558C64.999 102.872 63.8635 102.448 62.6765 102.329C61.4895 102.21 60.2918 102.4 59.2006 102.879C58.1095 103.358 57.1624 104.11 56.4523 105.062C57.5365 104.866 58.6537 104.958 59.6907 105.329C60.7277 105.699 61.6479 106.335 62.358 107.172C63.0681 108.009 63.5431 109.018 63.7349 110.096C63.9266 111.174 63.8284 112.283 63.45 113.311Z" fill="#BC864B"/>
<path d="M62.2071 115.873C65.3252 114.382 66.6358 110.662 65.1345 107.566C63.6332 104.469 59.8885 103.167 56.7705 104.658C53.6524 106.149 52.3418 109.868 53.8431 112.965C55.3444 116.062 59.0891 117.364 62.2071 115.873Z" fill="#844C23"/>
<path d="M63.5007 115.065C62.2616 114.994 61.0651 114.591 60.0381 113.898C59.011 113.206 58.1917 112.251 57.6672 111.134C57.1426 110.016 56.9323 108.779 57.0585 107.553C57.1848 106.326 57.6429 105.157 58.3843 104.168C57.4403 104.336 56.5476 104.717 55.7753 105.282C55.003 105.847 54.3717 106.58 53.93 107.426C53.4883 108.271 53.2481 109.206 53.2278 110.159C53.2076 111.111 53.4078 112.055 53.8132 112.919C54.2186 113.782 54.8182 114.541 55.5658 115.138C56.3134 115.735 57.189 116.153 58.125 116.36C59.0611 116.568 60.0327 116.559 60.9647 116.334C61.8968 116.11 62.7644 115.675 63.5007 115.065Z" fill="#6D401F"/>
<path d="M62.4717 110.125C62.1686 110.015 61.9052 109.818 61.7146 109.56C61.5241 109.301 61.415 108.992 61.4011 108.672C61.3873 108.352 61.4693 108.035 61.6368 107.761C61.8043 107.487 62.0498 107.269 62.3423 107.133C62.6348 106.998 62.9611 106.952 63.2799 107.001C63.5988 107.049 63.896 107.191 64.1339 107.407C64.3718 107.624 64.5398 107.905 64.6166 108.217C64.6934 108.528 64.6756 108.855 64.5654 109.156C64.492 109.356 64.3796 109.54 64.2347 109.697C64.0897 109.854 63.915 109.981 63.7206 110.071C63.5262 110.161 63.3158 110.212 63.1015 110.221C62.8873 110.231 62.6732 110.198 62.4717 110.125Z" fill="#99643F"/>
<path d="M52.4375 107.737C52.9453 106.35 53.8556 105.145 55.0532 104.273C56.2508 103.4 57.682 102.9 59.1658 102.836C60.6496 102.771 62.1192 103.145 63.389 103.911C64.6587 104.676 65.6714 105.798 66.2991 107.135C66.9268 108.471 67.1412 109.963 66.9153 111.421C66.6893 112.879 66.0332 114.238 65.0298 115.325C64.0263 116.413 62.7208 117.18 61.2781 117.531C59.8355 117.881 58.3206 117.799 56.925 117.294C55.0553 116.616 53.5329 115.229 52.6916 113.437C51.8503 111.645 51.759 109.595 52.4375 107.737ZM64.2133 111.993C64.5529 111.066 64.6082 110.06 64.372 109.102C64.1358 108.143 63.6189 107.276 62.8865 106.609C62.154 105.943 61.239 105.507 60.2572 105.357C59.2754 105.207 58.2707 105.349 57.3704 105.766C56.47 106.183 55.7143 106.855 55.1988 107.699C54.6833 108.542 54.4311 109.518 54.4742 110.504C54.5174 111.49 54.8538 112.441 55.441 113.237C56.0282 114.032 56.8398 114.637 57.7732 114.975C59.0253 115.428 60.4071 115.368 61.6147 114.808C62.8223 114.249 63.757 113.237 64.2133 111.993Z" fill="#5B310F"/>
<path d="M23.5175 90.2817C23.1387 91.315 22.4898 92.2295 21.6375 92.9314C22.8283 93.003 24.0175 92.7661 25.0884 92.2438C26.1593 91.7216 27.0752 90.932 27.7463 89.9523C28.4174 88.9727 28.8208 87.8367 28.9168 86.6556C29.0128 85.4745 28.7981 84.289 28.2939 83.2151C27.7897 82.1412 27.0132 81.2159 26.0405 80.5298C25.0678 79.8437 23.9323 79.4205 22.7453 79.3014C21.5583 79.1824 20.3606 79.3718 19.2694 79.8509C18.1783 80.33 17.2312 81.0826 16.5211 82.0347C17.6052 81.8387 18.7222 81.9306 19.7591 82.301C20.7959 82.6714 21.7159 83.3073 22.4259 84.1442C23.1359 84.9812 23.6108 85.9895 23.8025 87.0672C23.9941 88.1449 23.8958 89.2538 23.5175 90.2817Z" fill="#BC864B"/>
<path d="M22.4094 92.794C25.4915 91.2309 26.7142 87.4823 25.1405 84.4212C23.5667 81.3601 19.7923 80.1457 16.7102 81.7088C13.6282 83.2718 12.4055 87.0205 13.9792 90.0816C15.553 93.1427 19.3274 94.3571 22.4094 92.794Z" fill="#844C23"/>
<path d="M23.5682 92.0359C22.3297 91.9632 21.1341 91.5593 20.1079 90.8669C19.0817 90.1745 18.2631 89.2194 17.7387 88.1026C17.2144 86.9859 17.0038 85.7492 17.1293 84.5233C17.2549 83.2975 17.7118 82.1282 18.4517 81.1392C17.5077 81.3071 16.6151 81.6882 15.8428 82.253C15.0705 82.8178 14.4392 83.5513 13.9975 84.3968C13.5558 85.2424 13.3155 86.1774 13.2953 87.1297C13.275 88.0821 13.4753 89.0263 13.8806 89.8896C14.286 90.7529 14.8856 91.5122 15.6332 92.1089C16.3808 92.7056 17.2564 93.1238 18.1925 93.3312C19.1286 93.5385 20.1001 93.5296 21.0321 93.305C21.9642 93.0804 22.8318 92.6462 23.5682 92.0359Z" fill="#6D401F"/>
<path d="M22.5405 87.0972C22.2368 86.9876 21.9727 86.791 21.7815 86.5322C21.5904 86.2735 21.4808 85.9643 21.4666 85.6437C21.4524 85.3231 21.5343 85.0055 21.7019 84.7311C21.8695 84.4568 22.1153 84.2379 22.4081 84.1023C22.701 83.9667 23.0277 83.9204 23.3471 83.9693C23.6664 84.0181 23.964 84.16 24.2021 84.3769C24.4403 84.5937 24.6084 84.8759 24.685 85.1876C24.7617 85.4994 24.7435 85.8267 24.6328 86.1282C24.5597 86.3284 24.4476 86.5124 24.3028 86.6695C24.158 86.8266 23.9834 86.9538 23.7891 87.0438C23.5947 87.1338 23.3844 87.1848 23.1701 87.194C22.9559 87.2032 22.7419 87.1703 22.5405 87.0972Z" fill="#99643F"/>
<path d="M12.5063 84.7088C13.0153 83.3239 13.9263 82.1199 15.124 81.249C16.3218 80.3781 17.7526 79.8795 19.2356 79.816C20.7187 79.7526 22.1874 80.1272 23.4561 80.8926C24.7248 81.658 25.7366 82.7797 26.3636 84.116C26.9906 85.4524 27.2047 86.9433 26.9787 88.4005C26.7528 89.8576 26.0969 91.2155 25.0942 92.3025C24.0914 93.3896 22.7866 94.157 21.3448 94.5077C19.9031 94.8585 18.3889 94.7769 16.9938 94.2732C15.1223 93.5952 13.5983 92.2069 12.7569 90.4135C11.9154 88.6201 11.8253 86.5682 12.5063 84.7088ZM24.2821 88.9657C24.6217 88.0385 24.677 87.0321 24.4408 86.0738C24.2047 85.1154 23.6877 84.2481 22.9553 83.5815C22.2228 82.9149 21.3079 82.479 20.326 82.3289C19.3442 82.1787 18.3396 82.3211 17.4392 82.7379C16.5388 83.1548 15.7831 83.8275 15.2676 84.6709C14.7521 85.5143 14.5 86.4906 14.5431 87.4763C14.5862 88.4621 14.9226 89.4129 15.5098 90.2088C16.097 91.0046 16.9086 91.6097 17.842 91.9474C19.0942 92.3986 20.4755 92.3381 21.6828 91.7791C22.8901 91.2201 23.8249 90.2083 24.2821 88.9657Z" fill="#5B310F"/>
<path d="M44.1846 25.3886C43.8536 26.2933 43.2861 27.0942 42.5404 27.709C43.5827 27.7709 44.6234 27.5629 45.5604 27.1054C46.4975 26.6478 47.2988 25.9564 47.886 25.0988C48.4732 24.2412 48.826 23.2469 48.91 22.2132C48.9939 21.1794 48.8061 20.1418 48.3649 19.2018C47.9238 18.2618 47.2444 17.4518 46.3933 16.851C45.5422 16.2502 44.5485 15.8792 43.5097 15.7744C42.4708 15.6696 41.4224 15.8346 40.4671 16.2532C39.5117 16.6717 38.6822 17.3296 38.0597 18.1623C39.0097 17.9902 39.9887 18.0704 40.8974 18.3949C41.8061 18.7194 42.6124 19.2765 43.2346 20.01C43.8569 20.7434 44.2729 21.6272 44.4407 22.5717C44.6085 23.5162 44.5221 24.488 44.1901 25.3886H44.1846Z" fill="#BC864B"/>
<path d="M45.0512 26.0513C46.9005 23.6655 46.4523 20.2424 44.0501 18.4058C41.6479 16.5691 38.2014 17.0143 36.3521 19.4001C34.5028 21.7859 34.9511 25.209 37.3533 27.0456C39.7555 28.8823 43.2019 28.4372 45.0512 26.0513Z" fill="#844C23"/>
<path d="M44.2257 26.9251C43.6449 26.8923 43.072 26.7754 42.5253 26.578C41.6422 26.2596 40.8463 25.7405 40.201 25.0623C39.5557 24.3841 39.079 23.5655 38.8088 22.6718C38.5386 21.7782 38.4824 20.8341 38.6447 19.9151C38.807 18.996 39.1834 18.1273 39.7437 17.3784C38.9195 17.5279 38.1408 17.8632 37.4675 18.3583C36.7941 18.8535 36.244 19.4954 35.8595 20.2347C35.4749 20.9739 35.2661 21.7909 35.2491 22.6229C35.2321 23.4548 35.4074 24.2796 35.7615 25.0338C36.1155 25.7879 36.639 26.4514 37.2915 26.9733C37.9441 27.4952 38.7085 27.8615 39.5259 28.0441C40.3433 28.2268 41.1919 28.2209 42.0067 28.0269C42.8214 27.8329 43.5806 27.4559 44.2257 26.9251Z" fill="#6D401F"/>
<path d="M43.3282 22.5988C43.0623 22.5027 42.8311 22.3304 42.6638 22.1038C42.4965 21.8772 42.4006 21.6064 42.3882 21.3257C42.3758 21.045 42.4476 20.7669 42.5943 20.5266C42.7411 20.2864 42.9563 20.0948 43.2127 19.976C43.4691 19.8572 43.7553 19.8166 44.0349 19.8594C44.3146 19.9021 44.5752 20.0262 44.7838 20.2161C44.9924 20.4059 45.1396 20.6529 45.2069 20.9259C45.2741 21.1989 45.2584 21.4855 45.1616 21.7496C45.0319 22.1036 44.7658 22.392 44.422 22.5512C44.0782 22.7105 43.6847 22.7276 43.3282 22.5988Z" fill="#99643F"/>
<path d="M34.5368 20.5125C34.9806 19.2978 35.7772 18.2411 36.8258 17.4761C37.8743 16.7111 39.1278 16.2722 40.4276 16.2148C41.7273 16.1575 43.0151 16.4843 44.1278 17.1539C45.2406 17.8235 46.1283 18.8059 46.6788 19.9767C47.2293 21.1476 47.4178 22.4543 47.2205 23.7315C47.0231 25.0088 46.4488 26.1992 45.5701 27.1522C44.6915 28.1052 43.548 28.778 42.2843 29.0854C41.0205 29.3929 39.6934 29.3211 38.4708 28.8793C36.8325 28.2873 35.4978 27.0735 34.7601 25.5046C34.0225 23.9358 33.9422 22.1402 34.5368 20.5125ZM44.8533 24.2414C45.151 23.4289 45.1995 22.547 44.9926 21.7072C44.7856 20.8674 44.3326 20.1074 43.6907 19.5233C43.0489 18.9393 42.2471 18.5573 41.3867 18.4259C40.5262 18.2945 39.6459 18.4194 38.857 18.7849C38.0681 19.1504 37.406 19.7401 36.9546 20.4793C36.5031 21.2185 36.2825 22.0741 36.3206 22.9379C36.3588 23.8016 36.654 24.6348 37.1689 25.3319C37.6838 26.029 38.3953 26.5588 39.2134 26.8543C40.3111 27.249 41.5217 27.1947 42.5792 26.7035C43.6367 26.2123 44.4546 25.3243 44.8533 24.2346V24.2414Z" fill="#5B310F"/>
<path d="M106.873 80.7009C106.657 81.2904 106.288 81.812 105.801 82.2115C106.48 82.252 107.158 82.1166 107.768 81.8186C108.378 81.5207 108.9 81.0704 109.283 80.5118C109.665 79.9533 109.895 79.3056 109.949 78.6324C110.004 77.9591 109.881 77.2834 109.594 76.6713C109.306 76.0592 108.864 75.5317 108.309 75.1407C107.755 74.7496 107.107 74.5083 106.431 74.4404C105.754 74.3724 105.071 74.4803 104.449 74.7533C103.827 75.0263 103.287 75.4551 102.882 75.9977C103.501 75.8841 104.139 75.9353 104.731 76.146C105.323 76.3567 105.849 76.7194 106.254 77.1972C106.66 77.675 106.93 78.2509 107.039 78.8663C107.148 79.4817 107.09 80.1147 106.873 80.7009Z" fill="#BC864B"/>
<path d="M103.395 82.3122C102.731 82.0723 102.153 81.6422 101.735 81.0761C101.317 80.5101 101.077 79.8336 101.046 79.1323C101.015 78.431 101.194 77.7363 101.561 77.136C101.927 76.5358 102.465 76.057 103.105 75.7602C103.746 75.4635 104.461 75.362 105.159 75.4687C105.858 75.5755 106.509 75.8855 107.03 76.3598C107.551 76.834 107.919 77.4511 108.087 78.133C108.255 78.8149 108.216 79.5309 107.974 80.1906C107.65 81.0748 106.985 81.7949 106.127 82.1927C105.268 82.5905 104.285 82.6335 103.395 82.3122Z" fill="#844C23"/>
<path d="M106.901 81.7012C106.196 81.6596 105.515 81.4294 104.93 81.0349C104.345 80.6405 103.879 80.0964 103.58 79.4603C103.281 78.8242 103.161 78.1197 103.232 77.4213C103.303 76.7229 103.563 76.0566 103.984 75.4928C103.446 75.5885 102.937 75.8058 102.496 76.1278C102.056 76.4499 101.696 76.8681 101.444 77.3503C101.192 77.8324 101.055 78.3656 101.043 78.9087C101.032 79.4517 101.146 79.9902 101.377 80.4825C101.608 80.9748 101.95 81.4078 102.376 81.7481C102.803 82.0884 103.302 82.3269 103.836 82.4452C104.37 82.5635 104.924 82.5584 105.455 82.4304C105.987 82.3023 106.481 82.0547 106.901 81.7067V81.7012Z" fill="#6D401F"/>
<path d="M106.316 78.8855C106.143 78.823 105.992 78.7108 105.883 78.5632C105.774 78.4156 105.712 78.2392 105.704 78.0563C105.696 77.8734 105.742 77.6922 105.838 77.5357C105.933 77.3792 106.074 77.2543 106.241 77.177C106.408 77.0996 106.594 77.0732 106.776 77.1011C106.959 77.1291 107.128 77.21 107.264 77.3338C107.4 77.4575 107.496 77.6185 107.54 77.7964C107.583 77.9743 107.573 78.161 107.51 78.333C107.425 78.5631 107.252 78.7505 107.028 78.854C106.804 78.9576 106.548 78.9689 106.316 78.8855Z" fill="#99643F"/>
<path d="M100.593 77.5233C100.883 76.7333 101.402 76.0465 102.086 75.5496C102.769 75.0528 103.585 74.7683 104.431 74.732C105.277 74.6957 106.114 74.9093 106.838 75.3458C107.562 75.7823 108.139 76.4221 108.497 77.1843C108.854 77.9465 108.976 78.7969 108.848 79.628C108.719 80.4592 108.345 81.2337 107.773 81.8537C107.201 82.4738 106.457 82.9115 105.634 83.1116C104.812 83.3116 103.948 83.2651 103.152 82.9777C102.085 82.5909 101.216 81.7992 100.736 80.7765C100.256 79.7538 100.205 78.5837 100.593 77.5233ZM107.307 79.9511C107.501 79.4222 107.533 78.848 107.398 78.3012C107.264 77.7544 106.969 77.2594 106.551 76.879C106.134 76.4986 105.612 76.2498 105.051 76.1641C104.491 76.0783 103.918 76.1595 103.404 76.3974C102.891 76.6352 102.46 77.0191 102.166 77.5003C101.872 77.9816 101.728 78.5386 101.753 79.101C101.777 79.6634 101.97 80.2058 102.305 80.6597C102.64 81.1136 103.103 81.4585 103.636 81.6509C104.35 81.9086 105.138 81.8744 105.826 81.5557C106.515 81.237 107.048 80.6599 107.308 79.9511H107.307Z" fill="#5B310F"/>
<path d="M46.4181 72.8976C46.4181 70.3924 45.4161 67.9897 43.6324 66.2183C41.8488 64.4468 39.4298 63.4516 36.9073 63.4516C34.3849 63.4516 31.9658 64.4468 30.1822 66.2183C28.3986 67.9897 27.3966 70.3924 27.3966 72.8976C27.3966 73.3022 27.5584 73.6902 27.8465 73.9763C28.1345 74.2624 28.5252 74.4232 28.9326 74.4232C29.34 74.4232 29.7307 74.2624 30.0187 73.9763C30.3068 73.6902 30.4686 73.3022 30.4686 72.8976C30.4686 71.2012 31.1471 69.5743 32.3549 68.3748C33.5626 67.1753 35.2007 66.5014 36.9087 66.5014C38.6167 66.5014 40.2548 67.1753 41.4625 68.3748C42.6703 69.5743 43.3488 71.2012 43.3488 72.8976C43.3488 73.3022 43.5106 73.6902 43.7987 73.9763C44.0867 74.2624 44.4774 74.4232 44.8848 74.4232C45.2922 74.4232 45.6829 74.2624 45.9709 73.9763C46.259 73.6902 46.4208 73.3022 46.4208 72.8976H46.4181Z" fill="#5B310F"/>
<path d="M82.9676 63.4516C80.4461 63.4545 78.0287 64.4506 76.2457 66.2214C74.4627 67.9923 73.4597 70.3932 73.4568 72.8976C73.4568 73.3022 73.6187 73.6902 73.9067 73.9763C74.1948 74.2624 74.5855 74.4232 74.9929 74.4232C75.4002 74.4232 75.7909 74.2624 76.079 73.9763C76.367 73.6902 76.5289 73.3022 76.5289 72.8976C76.5289 71.2012 77.2074 69.5743 78.4151 68.3748C79.6229 67.1753 81.2609 66.5014 82.969 66.5014C84.677 66.5014 86.315 67.1753 87.5228 68.3748C88.7305 69.5743 89.409 71.2012 89.409 72.8976C89.409 73.3022 89.5709 73.6902 89.8589 73.9763C90.147 74.2624 90.5377 74.4232 90.9451 74.4232C91.3524 74.4232 91.7431 74.2624 92.0312 73.9763C92.3193 73.6902 92.4811 73.3022 92.4811 72.8976C92.4782 70.3928 91.4749 67.9914 89.6913 66.2205C87.9077 64.4496 85.4896 63.4538 82.9676 63.4516Z" fill="#5B310F"/>
<path d="M73.4116 83.9113C73.0061 83.865 72.5986 83.9804 72.2788 84.2323C71.9589 84.4841 71.7528 84.8518 71.7057 85.2545C71.4435 87.458 70.5533 89.5412 69.1396 91.2592C67.726 92.9772 65.8477 94.2586 63.7258 94.9525C61.6039 95.6464 59.3266 95.724 57.1618 95.1762C54.997 94.6284 53.0347 93.478 51.5058 91.8603C51.529 91.8454 51.5523 91.8222 51.5756 91.8073C51.7014 91.7241 51.8217 91.6332 51.936 91.5351C51.9675 91.5133 51.9977 91.482 52.0292 91.4589C52.1694 91.3326 52.3 91.1962 52.4197 91.0506C52.4433 91.0186 52.4689 90.9881 52.4965 90.9594C52.5965 90.8233 52.6896 90.6995 52.7814 90.5634C52.8116 90.5171 52.8349 90.479 52.865 90.4409C52.9651 90.2654 53.0651 90.0898 53.1583 89.8966C53.1733 89.8653 53.1802 89.8353 53.1966 89.7972C53.2746 89.6304 53.3437 89.4596 53.4035 89.2855C53.4186 89.2324 53.4419 89.1794 53.457 89.1263C53.5286 88.9135 53.5876 88.6968 53.6337 88.4771C53.6402 88.452 53.6452 88.4266 53.6488 88.4009C53.6872 88.2036 53.7255 87.9927 53.7488 87.7763C53.7583 87.7127 53.7633 87.6486 53.7639 87.5844C53.7872 87.349 53.8023 87.104 53.8023 86.8522C53.8044 86.2537 53.735 85.6571 53.5954 85.0749V85.0599C53.5954 85.0599 53.5872 85.0599 53.5872 85.045C53.0582 82.8172 51.599 81.3828 49.8547 81.3828C48.1104 81.3828 46.6374 82.8321 46.1139 85.0572C45.9736 85.6445 45.9019 86.2459 45.9002 86.8495C45.8973 87.6713 46.0292 88.4881 46.2907 89.2678C46.3839 89.5196 46.4908 89.7645 46.6059 90C46.6141 90.0163 46.6141 90.0313 46.6209 90.0463C46.6295 90.0613 46.6373 90.0767 46.6442 90.0925C46.6464 90.0925 46.6485 90.0934 46.65 90.0949C46.6515 90.0964 46.6524 90.0985 46.6524 90.1007C48.0159 92.997 50.2932 95.3727 53.1388 96.8675C55.9845 98.3624 59.2433 98.8949 62.4211 98.3843C65.599 97.8737 68.5225 96.3479 70.7485 94.0381C72.9744 91.7284 74.3813 88.7608 74.7558 85.5852C74.7972 85.1869 74.6795 84.7884 74.4282 84.4754C74.1768 84.1624 73.8118 83.9598 73.4116 83.9113ZM49.8629 89.2896C49.8245 89.2814 49.6011 89.1535 49.386 88.733C49.3112 88.5876 49.2471 88.4371 49.1942 88.2825C49.0451 87.824 48.9701 87.3449 48.9722 86.8631C48.9754 86.4962 49.0214 86.1308 49.1092 85.7744C49.3326 84.8286 49.7615 84.4625 49.8547 84.4462C49.9766 84.4693 50.3918 84.8544 50.6151 85.7894C50.6982 86.1417 50.7391 86.5026 50.7371 86.8645C50.7357 88.4118 50.0684 89.2379 49.8683 89.2896H49.8629Z" fill="#5B310F"/>
<path d="M98.0666 41.0516C101.36 37.7809 101.36 32.4782 98.0666 29.2076C94.7736 25.9369 89.4345 25.9369 86.1414 29.2076C82.8484 32.4782 82.8484 37.7809 86.1414 41.0516C89.4345 44.3222 94.7736 44.3222 98.0666 41.0516Z" fill="#DDA767"/>
<path d="M94.6858 40.0306C93.3107 40.0337 91.9559 39.7022 90.7396 39.0651C89.5233 38.4281 88.4826 37.5048 87.7086 36.3761C86.9345 35.2473 86.4506 33.9475 86.2992 32.5901C86.1477 31.2327 86.3334 29.8591 86.8399 28.5895C85.8295 29.39 85.0181 30.4106 84.4683 31.5723C83.9185 32.734 83.6451 34.0058 83.6692 35.2892C83.6932 36.5726 84.0142 37.8334 84.6072 38.9739C85.2002 40.1145 86.0494 41.1043 87.089 41.8669C88.1287 42.6295 89.3311 43.1443 90.6031 43.3717C91.8751 43.5991 93.1827 43.5328 94.4249 43.1781C95.667 42.8234 96.8104 42.1898 97.7666 41.3261C98.7227 40.4625 99.4661 39.392 99.9392 38.1974C98.4491 39.3842 96.5959 40.0309 94.6858 40.0306Z" fill="#BC864B"/>
<path d="M95.9008 33.4208C97.4321 33.1739 98.472 31.7409 98.2234 30.22C97.9748 28.6991 96.5319 27.6663 95.0006 27.9132C93.4693 28.1601 92.4295 29.5931 92.678 31.114C92.9266 32.6349 94.3695 33.6677 95.9008 33.4208Z" fill="#EFBE89"/>
<path d="M92.1042 45.0305C90.1327 45.0305 88.2054 44.4498 86.5661 43.3619C84.9268 42.274 83.6491 40.7278 82.8946 38.9187C82.1402 37.1096 81.9427 35.119 82.3274 33.1984C82.712 31.2779 83.6614 29.5138 85.0555 28.1292C86.4496 26.7446 88.2258 25.8017 90.1595 25.4196C92.0932 25.0376 94.0975 25.2337 95.919 25.983C97.7405 26.7324 99.2973 28.0014 100.393 29.6295C101.488 31.2576 102.073 33.1718 102.073 35.1299C102.07 37.7548 101.019 40.2714 99.1498 42.1275C97.281 43.9836 94.7471 45.0276 92.1042 45.0305ZM92.1042 28.2805C90.7403 28.2805 89.407 28.6823 88.2729 29.4349C87.1388 30.1875 86.2548 31.2572 85.7328 32.5088C85.2109 33.7604 85.0743 35.1375 85.3404 36.4662C85.6065 37.7948 86.2633 39.0153 87.2278 39.9732C88.1923 40.9311 89.4211 41.5834 90.7588 41.8477C92.0966 42.112 93.4832 41.9764 94.7434 41.458C96.0035 40.9395 97.0806 40.0616 97.8384 38.9353C98.5961 37.8089 99.0006 36.4846 99.0006 35.1299C98.9988 33.3139 98.2716 31.5728 96.9787 30.2887C95.6858 29.0046 93.9327 28.2823 92.1042 28.2805Z" fill="#5B310F"/>
<path d="M90.1495 12.4382C92.3247 10.2778 92.3248 6.77504 90.1495 4.61464C87.9743 2.45424 84.4476 2.45426 82.2724 4.61466C80.0972 6.77506 80.0972 10.2777 82.2724 12.4381C84.4476 14.5985 87.9743 14.5986 90.1495 12.4382Z" fill="#DDA767"/>
<path d="M87.9168 11.7647C87.0087 11.766 86.1141 11.5465 85.3111 11.1254C84.5081 10.7042 83.8211 10.0943 83.3101 9.34873C82.7991 8.6032 82.4796 7.74476 82.3795 6.84836C82.2794 5.95196 82.4018 5.04485 82.736 4.20624C82.0682 4.73506 81.5318 5.40935 81.1684 6.17697C80.8049 6.94458 80.6241 7.78494 80.6399 8.63305C80.6558 9.48116 80.8678 10.3143 81.2596 11.068C81.6514 11.8217 82.2126 12.4758 82.8996 12.9797C83.5867 13.4836 84.3812 13.8238 85.2218 13.974C86.0624 14.1241 86.9265 14.0802 87.7473 13.8457C88.568 13.6111 89.3235 13.1922 89.9552 12.6214C90.5869 12.0505 91.078 11.343 91.3903 10.5535C90.4051 11.3383 89.1798 11.7656 87.9168 11.7647Z" fill="#BC864B"/>
<path d="M86.5658 5.59162C86.5658 5.95606 86.6746 6.31232 86.8785 6.61534C87.0823 6.91836 87.3721 7.15454 87.7111 7.29401C88.0501 7.43347 88.4232 7.46997 88.783 7.39887C89.1429 7.32777 89.4735 7.15227 89.733 6.89457C89.9924 6.63687 90.1691 6.30854 90.2407 5.9511C90.3123 5.59366 90.2756 5.22316 90.1351 4.88646C89.9947 4.54976 89.7569 4.26198 89.4518 4.0595C89.1467 3.85703 88.788 3.74896 88.4211 3.74896C87.929 3.74896 87.4571 3.9431 87.1092 4.28866C86.7613 4.63423 86.5658 5.10291 86.5658 5.59162Z" fill="#EFBE89"/>
<path d="M86.2109 15.0689C84.9084 15.0689 83.6352 14.6853 82.5523 13.9667C81.4693 13.248 80.6253 12.2265 80.1268 11.0314C79.6284 9.83627 79.498 8.5212 79.7521 7.25247C80.0062 5.98374 80.6334 4.81834 81.5544 3.90364C82.4753 2.98894 83.6487 2.36602 84.9261 2.11365C86.2036 1.86129 87.5277 1.99081 88.731 2.48584C89.9343 2.98088 90.9627 3.81918 91.6864 4.89476C92.41 5.97034 92.7962 7.23487 92.7962 8.52845C92.7944 10.2625 92.1 11.9251 90.8654 13.1513C89.6308 14.3775 87.9568 15.0671 86.2109 15.0689ZM86.2109 4.00347C85.3098 4.00347 84.4289 4.26885 83.6797 4.76607C82.9305 5.26328 82.3465 5.96998 82.0017 6.79682C81.6568 7.62365 81.5666 8.53347 81.7424 9.41124C81.9182 10.289 82.3521 11.0953 82.9893 11.7281C83.6265 12.3609 84.4383 12.7919 85.3221 12.9665C86.2058 13.1411 87.1219 13.0515 87.9544 12.709C88.7869 12.3665 89.4984 11.7865 89.9991 11.0424C90.4997 10.2983 90.7669 9.42341 90.7669 8.52845C90.7658 7.32856 90.2855 6.1781 89.4313 5.32952C88.5772 4.48094 87.419 4.00355 86.2109 4.00211V4.00347Z" fill="#5B310F"/>
<path d="M121.003 42.7416C123.178 40.5812 123.178 37.0785 121.003 34.9181C118.828 32.7577 115.301 32.7577 113.126 34.9181C110.951 37.0785 110.951 40.5812 113.126 42.7416C115.301 44.902 118.828 44.902 121.003 42.7416Z" fill="#DDA767"/>
<path d="M118.766 42.0678C117.858 42.0695 116.963 41.8503 116.16 41.4293C115.357 41.0082 114.67 40.3982 114.159 39.6525C113.648 38.9068 113.328 38.0481 113.229 37.1516C113.129 36.255 113.252 35.3479 113.587 34.5094C112.919 35.0382 112.384 35.7123 112.021 36.4797C111.658 37.247 111.477 38.0869 111.493 38.9346C111.509 39.7822 111.721 40.6149 112.113 41.3681C112.504 42.1214 113.065 42.7752 113.752 43.2789C114.439 43.7825 115.233 44.1226 116.073 44.2729C116.913 44.4231 117.776 44.3795 118.597 44.1454C119.417 43.9112 120.173 43.4929 120.804 42.9226C121.436 42.3523 121.927 41.6455 122.24 40.8566C121.255 41.6416 120.029 42.0689 118.766 42.0678Z" fill="#BC864B"/>
<path d="M117.421 35.8907C117.421 36.2551 117.529 36.6114 117.733 36.9144C117.937 37.2174 118.227 37.4536 118.566 37.5931C118.905 37.7326 119.278 37.769 119.638 37.6979C119.998 37.6268 120.328 37.4513 120.588 37.1936C120.847 36.9359 121.024 36.6076 121.095 36.2502C121.167 35.8927 121.13 35.5222 120.99 35.1855C120.849 34.8488 120.612 34.5611 120.307 34.3586C120.002 34.1561 119.643 34.048 119.276 34.048C118.784 34.048 118.312 34.2422 117.964 34.5877C117.616 34.9333 117.421 35.402 117.421 35.8907Z" fill="#EFBE89"/>
<path d="M117.064 45.3707C115.762 45.3707 114.489 44.9871 113.406 44.2684C112.323 43.5497 111.479 42.5283 110.98 41.3331C110.482 40.138 110.351 38.823 110.606 37.5542C110.86 36.2855 111.487 35.1201 112.408 34.2054C113.329 33.2907 114.502 32.6678 115.78 32.4154C117.057 32.163 118.381 32.2926 119.584 32.7876C120.788 33.2826 121.816 34.1209 122.54 35.1965C123.263 36.2721 123.65 37.5366 123.65 38.8302C123.648 40.5643 122.953 42.2269 121.719 43.453C120.484 44.6792 118.81 45.3689 117.064 45.3707ZM117.064 34.3052C116.163 34.3052 115.282 34.5706 114.533 35.0678C113.784 35.565 113.2 36.2717 112.855 37.0986C112.51 37.9254 112.42 38.8352 112.596 39.713C112.772 40.5908 113.206 41.397 113.843 42.0299C114.48 42.6627 115.292 43.0937 116.175 43.2683C117.059 43.4429 117.975 43.3532 118.808 43.0108C119.64 42.6683 120.352 42.0883 120.853 41.3442C121.353 40.6 121.62 39.7252 121.62 38.8302C121.619 37.6306 121.138 36.4804 120.284 35.6322C119.43 34.7839 118.272 34.3067 117.064 34.3052Z" fill="#5B310F"/>
</svg>
