<svg width="34" height="34" viewBox="0 0 34 34" fill="none" xmlns="http://www.w3.org/2000/svg">
    <path d="M32.7733 11.403C32.0338 9.68106 30.5351 7.82203 29.3593 7.23389C30.3169 9.05041 30.8708 10.8738 31.0826 12.2338C31.0826 12.2297 31.084 12.2372 31.0854 12.2489L31.0883 12.2667C32.6947 16.4804 31.8192 20.7653 30.5584 23.3838C28.6078 27.435 23.8862 31.587 16.4936 31.3834C8.50675 31.1654 1.47044 25.4314 0.157244 17.9185C-0.0821635 16.734 0.157244 16.1328 0.277656 15.1711C0.131037 15.9114 0.0750804 16.1266 0.00141661 17.4435L0 17.5278C0 26.6241 7.62137 33.9999 17.022 33.9999C25.4416 33.9999 32.4319 28.0842 33.8018 20.3156L33.8797 19.6802C34.2176 16.856 33.8421 13.8858 32.7747 11.403H32.7733Z" fill="black"/>
    <path d="M17.0549 14.3606C17.0266 14.7705 15.5321 16.184 15.0079 16.184C10.1673 16.184 9.38184 19.0171 9.38184 19.0171C9.59645 21.4026 11.3127 23.3685 13.3908 24.4084C13.4858 24.4564 13.5821 24.4975 13.6777 24.5407C13.8424 24.6114 14.0092 24.6774 14.1778 24.7388C14.8906 24.983 15.6372 25.1223 16.3926 25.1522C24.8767 25.5374 26.5214 15.3361 20.3981 12.3748C21.9656 12.1109 23.5926 12.7209 24.502 13.3392C23.0146 10.8222 20.2345 9.12354 17.0436 9.12354C16.8417 9.12354 16.6441 9.13999 16.4458 9.15301C14.7383 9.26669 13.1057 9.87558 11.761 10.9003C12.0203 11.1128 12.3135 11.3966 12.9297 11.9854C14.0843 13.0863 17.0471 14.2269 17.0535 14.3606H17.0549Z" fill="black"/>
    <path d="M32.7733 11.4031C32.0338 9.68116 30.5351 7.82213 29.3593 7.23399C30.3169 9.05052 30.8708 10.8739 31.0826 12.2339L31.0861 12.2613C29.161 7.61855 25.8978 5.74581 23.2324 1.66925L22.8315 1.03861C22.7645 0.9274 22.7019 0.813755 22.6438 0.697921C22.5332 0.491154 22.4479 0.272609 22.3895 0.0467137C22.39 0.0359167 22.3862 0.0253511 22.379 0.0171023C22.3718 0.00885349 22.3617 0.003521 22.3506 0.00215741C22.3402 -0.000719137 22.3291 -0.000719137 22.3187 0.00215741L22.3102 0.00695578L22.2982 0.0138106L22.3053 0.00421386C18.0292 2.42808 16.5786 6.91113 16.4447 9.1554C14.7373 9.26887 13.1048 9.87752 11.76 10.902C11.6193 10.7869 11.4722 10.6794 11.3194 10.5798C10.9313 9.26624 10.9147 7.87592 11.2713 6.55399C9.52317 7.32447 8.16181 8.54189 7.17372 9.6181H7.16664C6.49162 8.79141 6.53908 6.0625 6.57733 5.49287C6.57025 5.45722 6.07443 5.7417 6.00927 5.7842C5.41371 6.19552 4.85693 6.65705 4.34546 7.16339C3.76356 7.73466 3.2319 8.35191 2.75602 9.0087L2.75531 9.01076V9.0087C1.66069 10.5098 0.884305 12.2059 0.471023 13.999L0.448358 14.1087C0.385632 14.4504 0.329666 14.7932 0.280489 15.1369L0.276948 15.1726C0.127857 15.9227 0.0355319 16.6824 0.000708306 17.4456L0 17.5279C0 26.6242 7.62137 34 17.022 34C25.4416 34 32.4319 28.0843 33.8018 20.3157L33.8797 19.6803C34.2176 16.8561 33.8421 13.8859 32.7747 11.4031H32.7733ZM13.1532 24.297C13.2333 24.3333 13.3091 24.3738 13.3898 24.4094L13.4011 24.4163C13.3179 24.3778 13.2352 24.338 13.1532 24.297ZM31.0868 12.2647L31.0847 12.249L31.0875 12.2668L31.0868 12.2647Z" fill="url(#paint0_linear_0_1)"/>
    <path d="M32.7733 11.403C32.0338 9.68106 30.5351 7.82203 29.3593 7.23389C30.3169 9.05041 30.8708 10.8738 31.0826 12.2338C31.0826 12.2297 31.084 12.2372 31.0854 12.2489L31.0883 12.2667C32.6947 16.4804 31.8192 20.7653 30.5584 23.3838C28.6078 27.435 23.8862 31.587 16.4936 31.3834C8.50675 31.1654 1.47044 25.4314 0.157244 17.9185C-0.0821635 16.734 0.157244 16.1328 0.277656 15.1711C0.131037 15.9114 0.0750804 16.1266 0.00141661 17.4435L0 17.5278C0 26.6241 7.62137 33.9999 17.022 33.9999C25.4416 33.9999 32.4319 28.0842 33.8018 20.3156L33.8797 19.6802C34.2176 16.856 33.8421 13.8858 32.7747 11.403H32.7733Z" fill="url(#paint1_radial_0_1)"/>
    <path d="M32.7733 11.403C32.0338 9.68106 30.5351 7.82203 29.3593 7.23389C30.3169 9.05041 30.8708 10.8738 31.0826 12.2338C31.0826 12.2297 31.084 12.2372 31.0854 12.2489L31.0883 12.2667C32.6947 16.4804 31.8192 20.7653 30.5584 23.3838C28.6078 27.435 23.8862 31.587 16.4936 31.3834C8.50675 31.1654 1.47044 25.4314 0.157244 17.9185C-0.0821635 16.734 0.157244 16.1328 0.277656 15.1711C0.131037 15.9114 0.0750804 16.1266 0.00141661 17.4435L0 17.5278C0 26.6241 7.62137 33.9999 17.022 33.9999C25.4416 33.9999 32.4319 28.0842 33.8018 20.3156L33.8797 19.6802C34.2176 16.856 33.8421 13.8858 32.7747 11.403H32.7733Z" fill="url(#paint2_radial_0_1)"/>
    <path d="M24.5013 13.3396L24.6076 13.415C24.1803 12.6812 23.6484 12.0095 23.0273 11.4195C17.7356 6.29966 21.6383 0.317463 22.2971 0.0137941L22.3041 0.00488281C18.0281 2.42806 16.5775 6.9118 16.4443 9.15469C16.6427 9.14098 16.841 9.12522 17.0421 9.12522C20.2331 9.12522 23.0132 10.8232 24.5006 13.3409L24.5013 13.3396Z" fill="url(#paint3_radial_0_1)"/>
    <path d="M17.0549 14.3606C17.0266 14.7705 15.5321 16.184 15.0079 16.184C10.1673 16.184 9.38184 19.0171 9.38184 19.0171C9.59645 21.4026 11.3127 23.3685 13.3908 24.4084C13.4858 24.4564 13.5821 24.4975 13.6777 24.5407C13.8424 24.6114 14.0092 24.6774 14.1778 24.7388C14.8906 24.983 15.6372 25.1223 16.3926 25.1522C24.8767 25.5374 26.5214 15.3361 20.3981 12.3748C21.9656 12.1109 23.5926 12.7209 24.502 13.3392C23.0146 10.8222 20.2345 9.12354 17.0436 9.12354C16.8417 9.12354 16.6441 9.13999 16.4458 9.15301C14.7383 9.26669 13.1057 9.87558 11.761 10.9003C12.0203 11.1128 12.3135 11.3966 12.9297 11.9854C14.0843 13.0863 17.0471 14.2269 17.0535 14.3606H17.0549Z" fill="url(#paint4_radial_0_1)"/>
    <path d="M10.9661 10.354C11.0846 10.428 11.2022 10.5034 11.3188 10.5802C10.9308 9.26637 10.9145 7.87579 11.2714 6.55371C9.52186 7.32488 8.16191 8.54161 7.17383 9.61781C7.25528 9.61576 9.72373 9.57257 10.9661 10.354Z" fill="url(#paint5_radial_0_1)"/>
    <path d="M0.157153 17.9184C1.47106 25.4313 8.50666 31.1654 16.4928 31.3841C23.8854 31.587 28.6077 27.4343 30.5583 23.3845C31.8191 20.7659 32.6946 16.4817 31.0882 12.2673V12.266L31.0853 12.2495C31.0839 12.2379 31.0825 12.2303 31.0825 12.2344L31.086 12.2619C31.6902 16.0772 29.6836 19.7734 26.5493 22.2726L26.5401 22.2932C20.431 27.1073 14.5853 25.1976 13.4011 24.4161C13.3179 24.3775 13.2352 24.3377 13.1531 24.2969C9.59179 22.6496 8.12064 19.5095 8.43583 16.8162C5.42907 16.8162 4.40345 14.3622 4.40345 14.3622C4.40345 14.3622 7.10351 12.499 10.662 14.1188C13.9578 15.62 17.0531 14.3622 17.0531 14.3615C17.046 14.2278 14.0839 13.0865 12.9293 11.9863C12.3117 11.3968 12.0192 11.1144 11.7592 10.9012C11.6185 10.7861 11.4714 10.6785 11.3186 10.579C11.2019 10.5024 11.0843 10.427 10.9659 10.3528C9.72424 9.57134 7.25438 9.61521 7.17292 9.61726H7.16584C6.49082 8.78989 6.53828 6.06098 6.57653 5.49066C6.56945 5.45639 6.07363 5.73949 6.00847 5.78268C5.41291 6.194 4.85613 6.65553 4.34466 7.16187C3.76276 7.73314 3.2311 8.35039 2.75522 9.00718L2.75451 9.00924V9.00718C1.65989 10.5082 0.883505 12.2043 0.470224 13.9975C0.463141 14.0331 -0.142461 16.5914 0.155736 17.9184H0.157153Z" fill="url(#paint6_radial_0_1)"/>
    <path d="M23.0274 11.4202C23.6484 12.01 24.1804 12.6815 24.6077 13.415L24.8626 13.6179C28.7229 17.059 26.7 21.9259 26.5484 22.2728C29.6834 19.7735 31.6893 16.0774 31.0851 12.262C29.1614 7.61855 25.8982 5.74581 23.2328 1.66925L22.8319 1.03861C22.7649 0.9274 22.7023 0.813755 22.6442 0.697921C22.5336 0.491154 22.4483 0.272609 22.3899 0.0467137C22.3904 0.0359167 22.3866 0.0253511 22.3794 0.0171023C22.3722 0.00885349 22.3621 0.003521 22.351 0.00215741C22.3406 -0.000719136 22.3295 -0.000719136 22.3191 0.00215741L22.3106 0.00695578L22.2986 0.0138106C21.6399 0.317479 17.7371 6.29968 23.0281 11.4202H23.0274Z" fill="url(#paint7_radial_0_1)"/>
    <path d="M24.8621 13.6176C24.7806 13.5462 24.6955 13.4788 24.6071 13.4154L24.5008 13.34C23.5921 12.7231 21.9651 12.1116 20.3969 12.3755C26.5195 15.3382 24.8755 25.5389 16.3914 25.1529C15.636 25.1231 14.8894 24.9838 14.1766 24.7396C14.008 24.6781 13.8412 24.6121 13.6765 24.5415C13.5798 24.4997 13.4841 24.4556 13.3896 24.4092L13.401 24.416C14.5839 25.1975 20.4302 27.1066 26.5401 22.2931L26.5493 22.2725C26.7001 21.9257 28.7223 17.0588 24.8635 13.6176H24.8621Z" fill="url(#paint8_radial_0_1)"/>
    <path d="M9.38085 19.0181C9.38085 19.0181 10.1671 16.185 15.0069 16.185C15.5311 16.185 17.0256 14.7716 17.0539 14.3617C17.0823 13.9517 13.9586 15.6202 10.6629 14.119C7.10436 12.4992 4.4043 14.3617 4.4043 14.3617C4.4043 14.3617 5.42992 16.8157 8.43668 16.8157C8.12149 19.5096 9.59264 22.6491 13.154 24.2963C13.234 24.3327 13.3084 24.3731 13.3906 24.4088C11.3117 23.3689 9.59547 21.4036 9.38156 19.0175L9.38085 19.0181Z" fill="url(#paint9_radial_0_1)"/>
    <path d="M32.7733 11.4031C32.0338 9.68116 30.5351 7.82213 29.3593 7.23399C30.3169 9.05052 30.8708 10.8739 31.0826 12.2339L31.0861 12.2613C29.161 7.61855 25.8978 5.74581 23.2324 1.66925L22.8315 1.03861C22.7645 0.9274 22.7019 0.813755 22.6438 0.697921C22.5332 0.491154 22.4479 0.272609 22.3896 0.0467137C22.39 0.0359167 22.3862 0.0253511 22.379 0.0171023C22.3718 0.00885349 22.3617 0.003521 22.3506 0.00215741C22.3402 -0.000719136 22.3291 -0.000719136 22.3187 0.00215741L22.3102 0.00695578L22.2982 0.0138106L22.3053 0.00421386C18.0292 2.42808 16.5786 6.91113 16.4447 9.1554C16.6431 9.14169 16.8414 9.12592 17.0433 9.12592C20.2342 9.12592 23.0143 10.8239 24.5017 13.3403C23.5923 12.7233 21.966 12.1119 20.3971 12.3758C26.5197 15.3384 24.8757 25.5391 16.3916 25.1532C15.6361 25.1234 14.8895 24.984 14.1767 24.7398C14.0082 24.6784 13.8414 24.6123 13.6767 24.5417C13.5799 24.4999 13.4843 24.4558 13.3898 24.4094L13.4019 24.4163C13.3187 24.3776 13.236 24.3378 13.1539 24.297C13.2333 24.3333 13.3084 24.3738 13.3898 24.4094C11.3109 23.3695 9.59471 21.4043 9.3808 19.0181C9.3808 19.0181 10.1656 16.185 15.0062 16.185C15.5303 16.185 17.0248 14.7715 17.0532 14.3616C17.0461 14.228 14.0854 13.0866 12.9294 11.9864C12.3132 11.3969 12.0192 11.1145 11.7607 10.9013C11.6198 10.7862 11.4725 10.6787 11.3194 10.5791C10.9316 9.2655 10.9152 7.87517 11.272 6.55331C9.52246 7.32379 8.16252 8.5412 7.17443 9.61741H7.16735C6.49233 8.79003 6.53979 6.06182 6.57804 5.49081C6.57095 5.45654 6.07514 5.73964 6.00998 5.78283C5.41441 6.19415 4.85764 6.65568 4.34617 7.16202C3.76451 7.73332 3.23309 8.35056 2.75743 9.00733L2.75673 9.00939V9.00733C1.66211 10.5084 0.885722 12.2045 0.47244 13.9976L0.449774 14.1073C0.377456 14.4522 0.312044 14.7985 0.253574 15.1458C0.252157 15.1582 0.25499 15.1342 0.253574 15.1458C0.12205 15.9064 0.0380813 16.6739 0.00212492 17.4442L0 17.5279C0 26.6242 7.62137 34 17.022 34C25.4416 34 32.4319 28.0843 33.8018 20.3157L33.8797 19.6803C34.2176 16.8561 33.8421 13.8859 32.7747 11.4031H32.7733ZM31.0847 12.249L31.0875 12.2668V12.2654L31.0847 12.249Z" fill="url(#paint10_linear_0_1)"/>
    <defs>
        <linearGradient id="paint0_linear_0_1" x1="29.665" y1="5.27" x2="3.196" y2="31.654" gradientUnits="userSpaceOnUse">
            <stop offset="0.05" stop-color="#FFF44F"/>
            <stop offset="0.37" stop-color="#FF980E"/>
            <stop offset="0.53" stop-color="#FF3647"/>
            <stop offset="0.7" stop-color="#E31587"/>
        </linearGradient>
        <radialGradient id="paint1_radial_0_1" cx="0" cy="0" r="1" gradientUnits="userSpaceOnUse" gradientTransform="translate(23.5463 3.78116) scale(34.816 34.2605)">
            <stop offset="0.13" stop-color="#FFBD4F"/>
            <stop offset="0.28" stop-color="#FF980E"/>
            <stop offset="0.47" stop-color="#FF3750"/>
            <stop offset="0.78" stop-color="#EB0878"/>
            <stop offset="0.86" stop-color="#E50080"/>
        </radialGradient>
        <radialGradient id="paint2_radial_0_1" cx="0" cy="0" r="1" gradientUnits="userSpaceOnUse" gradientTransform="translate(13.4573 17.9403) scale(35.6864 34.2605)">
            <stop offset="0.3" stop-color="#960E18"/>
            <stop offset="0.35" stop-color="#B11927" stop-opacity="0.74"/>
            <stop offset="0.43" stop-color="#DB293D" stop-opacity="0.34"/>
            <stop offset="0.5" stop-color="#F5334B" stop-opacity="0.1"/>
            <stop offset="0.53" stop-color="#FF3750" stop-opacity="0"/>
        </radialGradient>
        <radialGradient id="paint3_radial_0_1" cx="0" cy="0" r="1" gradientUnits="userSpaceOnUse" gradientTransform="translate(20.3627 -1.60433) scale(11.4285 18.7741)">
            <stop offset="0.13" stop-color="#FFF44F"/>
            <stop offset="0.53" stop-color="#FF980E"/>
        </radialGradient>
        <radialGradient id="paint4_radial_0_1" cx="0" cy="0" r="1" gradientUnits="userSpaceOnUse" gradientTransform="translate(12.8232 26.7843) scale(15.1202 16.0392)">
            <stop offset="0.35" stop-color="#3A8EE6"/>
            <stop offset="0.67" stop-color="#9059FF"/>
            <stop offset="1" stop-color="#C139E6"/>
        </radialGradient>
        <radialGradient id="paint5_radial_0_1" cx="0" cy="0" r="1" gradientUnits="userSpaceOnUse" gradientTransform="translate(15.8783 2.52719) scale(12.0205 11.6769)">
            <stop offset="0.1" stop-color="#FFE226"/>
            <stop offset="0.79" stop-color="#FF7139"/>
        </radialGradient>
        <radialGradient id="paint6_radial_0_1" cx="0" cy="0" r="1" gradientUnits="userSpaceOnUse" gradientTransform="translate(26.8578 -5.1326) scale(57.3955 46.6261)">
            <stop offset="0.11" stop-color="#FFF44F"/>
            <stop offset="0.46" stop-color="#FF980E"/>
            <stop offset="0.72" stop-color="#FF3647"/>
            <stop offset="0.9" stop-color="#E31587"/>
        </radialGradient>
        <radialGradient id="paint7_radial_0_1" cx="0" cy="0" r="1" gradientUnits="userSpaceOnUse" gradientTransform="translate(5.4772 10.2181) rotate(76.9889) scale(17.6478 78.6439)">
            <stop stop-color="#FFF44F"/>
            <stop offset="0.3" stop-color="#FF980E"/>
            <stop offset="0.57" stop-color="#FF3647"/>
            <stop offset="0.74" stop-color="#E31587"/>
        </radialGradient>
        <radialGradient id="paint8_radial_0_1" cx="0" cy="0" r="1" gradientUnits="userSpaceOnUse" gradientTransform="translate(16.0022 6.72761) scale(32.9539 31.328)">
            <stop offset="0.14" stop-color="#FFF44F"/>
            <stop offset="0.48" stop-color="#FF980E"/>
            <stop offset="0.66" stop-color="#FF3647"/>
            <stop offset="0.9" stop-color="#E31587"/>
        </radialGradient>
        <radialGradient id="paint9_radial_0_1" cx="0" cy="0" r="1" gradientUnits="userSpaceOnUse" gradientTransform="translate(24.5555 8.55942) scale(39.6066 34.2899)">
            <stop offset="0.09" stop-color="#FFF44F"/>
            <stop offset="0.63" stop-color="#FF980E"/>
        </radialGradient>
        <linearGradient id="paint10_linear_0_1" x1="27.2" y1="4.76" x2="6.12" y2="28.56" gradientUnits="userSpaceOnUse">
            <stop offset="0.17" stop-color="#FFF44F" stop-opacity="0.8"/>
            <stop offset="0.6" stop-color="#FFF44F" stop-opacity="0"/>
        </linearGradient>
    </defs>
</svg>
